<svg width="182" height="42" viewBox="0 0 182 42" fill="none" xmlns="http://www.w3.org/2000/svg">
<path d="M10.6369 21.9579C13.8046 21.9579 19.4381 21.9219 19.4381 17.8723V17.5123C19.4381 13.4987 14.5606 13.4987 11.6988 13.4987C9.1611 13.4987 7.70324 13.4987 7.70324 12.7068C7.70324 12.0048 8.87312 11.8788 9.55706 11.8788C10.259 11.8788 11.6988 11.9868 11.6988 12.9587H18.7182C18.7182 9.17912 13.2107 8.99913 10.259 8.99913H8.63915C5.70544 8.99913 0.179982 9.17912 0.179982 12.8148C0.179982 16.5584 5.1115 16.7384 7.70324 16.7384C10.169 16.7384 12.0588 16.7384 12.0588 17.5843C12.0588 18.2862 10.7089 18.3582 9.79103 18.3582C8.94512 18.3582 7.37927 18.3042 7.37927 17.2783H0C0 21.9219 5.29148 21.9579 8.78313 21.9579H10.6369Z" fill="#2CB34A"/>
<path d="M24.3212 21.7779H30.6206V12.9587H35.8221V9.17912H19.2637V12.9587H24.3212V21.7779Z" fill="#2CB34A"/>
<path d="M52.3797 15.4245C54.1076 15.4245 55.4394 14.0746 55.4394 12.2388C55.4394 10.115 53.6756 9.17912 50.7059 9.17912H36.5413V21.7779H42.8407V17.5843H47.0703C48.3661 17.5843 49.1401 18.3402 49.1401 19.7081V21.7779H55.6194V18.6102C55.6194 16.7924 54.1256 15.4965 52.3797 15.4245ZM42.8407 14.1646V12.5988H48.3481C48.7801 12.5988 49.1401 12.9407 49.1401 13.3907C49.1401 13.8227 48.7801 14.1646 48.3481 14.1646H42.8407Z" fill="#2CB34A"/>
<path d="M56.3323 21.7779H71.8108V18.1782H62.6317V17.0083H71.8108V13.6787H62.6317V12.5988H71.8108V9.17912H56.3323V21.7779Z" fill="#2CB34A"/>
<path d="M72.5378 21.7779H88.0162V18.1782H78.8371V17.0083H88.0162V13.6787H78.8371V12.5988H88.0162V9.17912H72.5378V21.7779Z" fill="#2CB34A"/>
<path d="M93.8007 21.7779H100.1V12.9587H105.302V9.17912H88.7432V12.9587H93.8007V21.7779Z" fill="#2CB34A"/>
<path d="M119.546 21.7779L125.845 9.17912H118.898L115.748 16.7384L112.617 9.17912H105.687L111.969 21.7779H119.546Z" fill="#2CB34A"/>
<path d="M135.549 21.7779H151.028V18.1782H141.848V17.0083H151.028V13.6787H141.848V12.5988H151.028V9.17912H135.549V21.7779Z" fill="#2CB34A"/>
<path d="M182 9.17912H174.801L172.515 16.7384L170.283 9.17912H163.084L160.852 16.7384L158.602 9.17912H151.403L156.173 21.7779H164.272L166.702 14.5786L168.771 21.7779H177.23L182 9.17912Z" fill="#2CB34A"/>
<mask id="path-2-outside-1" maskUnits="userSpaceOnUse" x="1.03809" y="23.4236" width="180" height="19" fill="black">
<rect fill="white" x="1.03809" y="23.4236" width="180" height="19"/>
<path d="M26.9098 37.3157C27.3544 37.3157 27.7989 37.2689 28.2435 37.1987V40.8254C27.1438 41.0126 26.0675 41.036 24.9678 41.036C23.2364 41.036 21.7155 40.4744 20.2883 39.5385L20.1713 39.4449L20.0543 39.5151C17.6677 40.7318 14.9068 41.036 12.2395 41.036C8.9638 41.036 2.27206 40.802 2.27206 36.6606C2.27206 33.5721 5.9689 32.683 8.61284 32.2384L9.22118 32.1214L8.70643 31.7939C7.11539 30.8112 5.75832 29.8285 5.75832 27.9099C5.75832 24.8214 12.2161 24.6576 14.3453 24.6576C16.6382 24.6576 22.6749 24.8448 22.6749 28.1438C22.6749 30.3432 18.7206 31.4897 16.7318 31.7705L16.1001 31.8641L20.686 34.7654L20.8264 34.6016C21.4348 33.7827 21.6453 32.4256 21.6687 31.4195H27.7521C27.682 33.4317 26.6291 35.3269 25.2018 36.7542L24.8976 37.0584L25.3188 37.152C25.8335 37.2455 26.3717 37.3157 26.9098 37.3157ZM25.3656 36.918C27.0034 35.2801 28.0095 33.2211 28.0095 31.1855H21.4582C21.4582 32.0045 21.271 33.6423 20.6392 34.4612L16.7786 32.0045C19.0014 31.6769 22.9088 30.4602 22.9088 28.1438C22.9088 24.6342 16.7786 24.4236 14.3453 24.4236C11.8183 24.4236 5.52434 24.6576 5.52434 27.9099C5.52434 29.9455 6.9516 30.975 8.58944 32.0045C5.87531 32.4724 2.03809 33.3849 2.03809 36.6606C2.03809 41.036 8.91701 41.2699 12.2395 41.2699C14.9068 41.2699 17.7379 40.9658 20.1713 39.7257C21.4816 40.6148 23.0024 41.2699 24.9678 41.2699C26.9098 41.2699 27.2608 41.2465 28.4775 41.036V36.918C27.9159 37.035 27.4012 37.0818 26.9098 37.0818C26.3951 37.0818 25.9037 37.0116 25.3656 36.918ZM16.4277 36.9414L11.0696 33.3849L10.976 33.4083C10.2039 33.6189 9.75932 34.3208 9.75932 35.0696C9.75932 37.035 12.0991 37.5731 13.4328 37.5731C14.1581 37.5731 15.3514 37.4795 16.0533 37.1286L16.4277 36.9414ZM13.4328 37.3391C10.976 37.3391 9.9933 36.1225 9.9933 35.0696C9.9933 34.4144 10.3677 33.8061 11.0462 33.6423L15.9597 36.918C15.4216 37.1753 14.3219 37.3391 13.4328 37.3391ZM16.3575 28.7288C16.3575 27.6993 15.1408 27.4653 14.3453 27.4653C13.5264 27.4653 12.3331 27.6525 12.3331 28.7054C12.3331 29.2201 12.7074 29.6179 13.0818 29.8987C13.269 30.0625 13.503 30.1794 13.6901 30.2964C13.9007 30.4134 14.0879 30.507 14.2283 30.5772L14.3219 30.624L14.3921 30.6006C15.1174 30.4134 16.3575 29.7817 16.3575 28.7288ZM14.3453 30.39C13.5264 29.9455 12.567 29.4307 12.567 28.7054C12.5436 28.1438 13.0818 27.6993 14.3453 27.6993C15.562 27.6993 16.1235 28.1438 16.1235 28.7288C16.1235 29.5477 15.1408 30.156 14.3453 30.39Z"/>
<path d="M59.8286 36.2862C59.8286 39.5385 56.974 40.802 53.9791 40.802H35.495V24.8916H52.8092C55.3362 24.8916 58.6821 25.1255 58.6821 28.1438C58.6821 30.2028 57.1378 30.9984 55.1958 31.2791V31.7471C57.793 32.0747 59.8286 33.5487 59.8286 36.2862ZM55.2192 31.5131C57.3016 31.2089 58.916 30.3432 58.916 28.1438C58.916 25.0787 55.8041 24.6576 52.8092 24.6576H35.261V41.036H53.9791C57.7462 41.036 60.0625 39.2343 60.0625 36.2862C60.0625 33.7125 58.2843 31.9109 55.2192 31.5131ZM43.2162 31.0218H49.8845C50.4695 31.0218 50.9608 30.5304 50.9608 29.9455C50.9608 29.3605 50.4695 28.8692 49.8845 28.8692H43.2162V31.0218ZM49.8845 29.1031C50.3525 29.1031 50.7268 29.4775 50.7268 29.9455C50.7268 30.4134 50.3525 30.7878 49.8845 30.7878H43.4502V29.1031H49.8845ZM50.6099 36.7308C51.2884 36.7308 51.8733 36.1692 51.8733 35.4673C51.8733 34.7888 51.2884 34.2272 50.6099 34.2272H43.2162V36.7308H50.6099ZM43.4502 34.4612H50.6099C51.1714 34.4612 51.6394 34.9058 51.6394 35.4673C51.6394 36.0289 51.1714 36.4968 50.6099 36.4968H43.4502V34.4612Z"/>
<path d="M80.6488 24.8916V28.8692H68.716V30.741H80.6488V34.6016H68.716V36.5904H80.6488V40.802H60.9948V24.8916H80.6488ZM80.8828 41.036V36.3564H68.95V34.8356H80.8828V30.507H68.95V29.1031H80.8828V24.6576H60.7608V41.036H80.8828Z"/>
<path d="M90.5777 24.8916L93.9938 29.9923L97.3864 24.8916H106.582L97.8544 35.093V40.802H90.1331V35.093L81.3824 24.8916H90.5777ZM89.8992 41.036H98.0883V35.1865L107.096 24.6576H97.2694L93.9938 29.5711L90.7181 24.6576H80.891L89.8992 35.1865V41.036Z"/>
<path d="M127.914 33.3147C127.914 39.3279 121.69 41.036 116.566 41.036H115.162C110.038 41.036 103.814 39.3279 103.814 33.3147V32.3788C103.814 26.3422 110.038 24.6576 115.162 24.6576H116.566C121.69 24.6576 127.914 26.3422 127.914 32.3788V33.3147ZM115.162 24.4236C109.945 24.4236 103.58 26.155 103.58 32.3788V33.3147C103.58 39.5151 109.945 41.2699 115.162 41.2699H116.566C121.784 41.2699 128.148 39.5151 128.148 33.3147V32.3788C128.148 26.155 121.784 24.4236 116.566 24.4236H115.162ZM116.332 36.3564C118.438 36.3564 120.427 35.2801 120.427 32.8468C120.427 30.4134 118.438 29.3371 116.332 29.3371H115.396C113.29 29.3371 111.302 30.4134 111.302 32.8468C111.302 35.2801 113.29 36.3564 115.396 36.3564H116.332ZM115.396 36.1225C113.337 36.1225 111.536 35.093 111.536 32.8468C111.536 30.6006 113.337 29.5711 115.396 29.5711H116.332C118.391 29.5711 120.193 30.6006 120.193 32.8468C120.193 35.093 118.391 36.1225 116.332 36.1225H115.396Z"/>
<path d="M138.702 24.8916L146.283 32.215V24.8916H154.004V40.802H145.909L136.924 32.3086V40.802H129.086V24.8916H138.702ZM137.158 41.036V32.8468L145.815 41.036H154.238V24.6576H146.049V31.6769L138.796 24.6576H128.852V41.036H137.158Z"/>
<path d="M169.915 24.8916C174.688 24.8916 179.742 27.0208 179.742 32.3788V33.3147C179.742 38.6728 174.711 40.802 169.915 40.802H155.408V24.8916H169.915ZM155.174 41.036H169.915C175.203 41.036 179.976 38.5792 179.976 33.3147V32.3788C179.976 27.1143 175.203 24.6576 169.915 24.6576H155.174V41.036ZM167.458 36.3564C169.587 36.3564 171.786 35.4205 171.786 32.8468C171.786 30.273 169.587 29.3371 167.458 29.3371H163.129V36.3564H167.458ZM163.363 29.5711H167.458C169.587 29.5711 171.553 30.507 171.553 32.8468C171.553 35.1865 169.587 36.1225 167.458 36.1225H163.363V29.5711Z"/>
</mask>
<path d="M26.9098 37.3157C27.3544 37.3157 27.7989 37.2689 28.2435 37.1987V40.8254C27.1438 41.0126 26.0675 41.036 24.9678 41.036C23.2364 41.036 21.7155 40.4744 20.2883 39.5385L20.1713 39.4449L20.0543 39.5151C17.6677 40.7318 14.9068 41.036 12.2395 41.036C8.9638 41.036 2.27206 40.802 2.27206 36.6606C2.27206 33.5721 5.9689 32.683 8.61284 32.2384L9.22118 32.1214L8.70643 31.7939C7.11539 30.8112 5.75832 29.8285 5.75832 27.9099C5.75832 24.8214 12.2161 24.6576 14.3453 24.6576C16.6382 24.6576 22.6749 24.8448 22.6749 28.1438C22.6749 30.3432 18.7206 31.4897 16.7318 31.7705L16.1001 31.8641L20.686 34.7654L20.8264 34.6016C21.4348 33.7827 21.6453 32.4256 21.6687 31.4195H27.7521C27.682 33.4317 26.6291 35.3269 25.2018 36.7542L24.8976 37.0584L25.3188 37.152C25.8335 37.2455 26.3717 37.3157 26.9098 37.3157ZM25.3656 36.918C27.0034 35.2801 28.0095 33.2211 28.0095 31.1855H21.4582C21.4582 32.0045 21.271 33.6423 20.6392 34.4612L16.7786 32.0045C19.0014 31.6769 22.9088 30.4602 22.9088 28.1438C22.9088 24.6342 16.7786 24.4236 14.3453 24.4236C11.8183 24.4236 5.52434 24.6576 5.52434 27.9099C5.52434 29.9455 6.9516 30.975 8.58944 32.0045C5.87531 32.4724 2.03809 33.3849 2.03809 36.6606C2.03809 41.036 8.91701 41.2699 12.2395 41.2699C14.9068 41.2699 17.7379 40.9658 20.1713 39.7257C21.4816 40.6148 23.0024 41.2699 24.9678 41.2699C26.9098 41.2699 27.2608 41.2465 28.4775 41.036V36.918C27.9159 37.035 27.4012 37.0818 26.9098 37.0818C26.3951 37.0818 25.9037 37.0116 25.3656 36.918ZM16.4277 36.9414L11.0696 33.3849L10.976 33.4083C10.2039 33.6189 9.75932 34.3208 9.75932 35.0696C9.75932 37.035 12.0991 37.5731 13.4328 37.5731C14.1581 37.5731 15.3514 37.4795 16.0533 37.1286L16.4277 36.9414ZM13.4328 37.3391C10.976 37.3391 9.9933 36.1225 9.9933 35.0696C9.9933 34.4144 10.3677 33.8061 11.0462 33.6423L15.9597 36.918C15.4216 37.1753 14.3219 37.3391 13.4328 37.3391ZM16.3575 28.7288C16.3575 27.6993 15.1408 27.4653 14.3453 27.4653C13.5264 27.4653 12.3331 27.6525 12.3331 28.7054C12.3331 29.2201 12.7074 29.6179 13.0818 29.8987C13.269 30.0625 13.503 30.1794 13.6901 30.2964C13.9007 30.4134 14.0879 30.507 14.2283 30.5772L14.3219 30.624L14.3921 30.6006C15.1174 30.4134 16.3575 29.7817 16.3575 28.7288ZM14.3453 30.39C13.5264 29.9455 12.567 29.4307 12.567 28.7054C12.5436 28.1438 13.0818 27.6993 14.3453 27.6993C15.562 27.6993 16.1235 28.1438 16.1235 28.7288C16.1235 29.5477 15.1408 30.156 14.3453 30.39Z" fill="white"/>
<path d="M59.8286 36.2862C59.8286 39.5385 56.974 40.802 53.9791 40.802H35.495V24.8916H52.8092C55.3362 24.8916 58.6821 25.1255 58.6821 28.1438C58.6821 30.2028 57.1378 30.9984 55.1958 31.2791V31.7471C57.793 32.0747 59.8286 33.5487 59.8286 36.2862ZM55.2192 31.5131C57.3016 31.2089 58.916 30.3432 58.916 28.1438C58.916 25.0787 55.8041 24.6576 52.8092 24.6576H35.261V41.036H53.9791C57.7462 41.036 60.0625 39.2343 60.0625 36.2862C60.0625 33.7125 58.2843 31.9109 55.2192 31.5131ZM43.2162 31.0218H49.8845C50.4695 31.0218 50.9608 30.5304 50.9608 29.9455C50.9608 29.3605 50.4695 28.8692 49.8845 28.8692H43.2162V31.0218ZM49.8845 29.1031C50.3525 29.1031 50.7268 29.4775 50.7268 29.9455C50.7268 30.4134 50.3525 30.7878 49.8845 30.7878H43.4502V29.1031H49.8845ZM50.6099 36.7308C51.2884 36.7308 51.8733 36.1692 51.8733 35.4673C51.8733 34.7888 51.2884 34.2272 50.6099 34.2272H43.2162V36.7308H50.6099ZM43.4502 34.4612H50.6099C51.1714 34.4612 51.6394 34.9058 51.6394 35.4673C51.6394 36.0289 51.1714 36.4968 50.6099 36.4968H43.4502V34.4612Z" fill="white"/>
<path d="M80.6488 24.8916V28.8692H68.716V30.741H80.6488V34.6016H68.716V36.5904H80.6488V40.802H60.9948V24.8916H80.6488ZM80.8828 41.036V36.3564H68.95V34.8356H80.8828V30.507H68.95V29.1031H80.8828V24.6576H60.7608V41.036H80.8828Z" fill="white"/>
<path d="M90.5777 24.8916L93.9938 29.9923L97.3864 24.8916H106.582L97.8544 35.093V40.802H90.1331V35.093L81.3824 24.8916H90.5777ZM89.8992 41.036H98.0883V35.1865L107.096 24.6576H97.2694L93.9938 29.5711L90.7181 24.6576H80.891L89.8992 35.1865V41.036Z" fill="white"/>
<path d="M127.914 33.3147C127.914 39.3279 121.69 41.036 116.566 41.036H115.162C110.038 41.036 103.814 39.3279 103.814 33.3147V32.3788C103.814 26.3422 110.038 24.6576 115.162 24.6576H116.566C121.69 24.6576 127.914 26.3422 127.914 32.3788V33.3147ZM115.162 24.4236C109.945 24.4236 103.58 26.155 103.58 32.3788V33.3147C103.58 39.5151 109.945 41.2699 115.162 41.2699H116.566C121.784 41.2699 128.148 39.5151 128.148 33.3147V32.3788C128.148 26.155 121.784 24.4236 116.566 24.4236H115.162ZM116.332 36.3564C118.438 36.3564 120.427 35.2801 120.427 32.8468C120.427 30.4134 118.438 29.3371 116.332 29.3371H115.396C113.29 29.3371 111.302 30.4134 111.302 32.8468C111.302 35.2801 113.29 36.3564 115.396 36.3564H116.332ZM115.396 36.1225C113.337 36.1225 111.536 35.093 111.536 32.8468C111.536 30.6006 113.337 29.5711 115.396 29.5711H116.332C118.391 29.5711 120.193 30.6006 120.193 32.8468C120.193 35.093 118.391 36.1225 116.332 36.1225H115.396Z" fill="white"/>
<path d="M138.702 24.8916L146.283 32.215V24.8916H154.004V40.802H145.909L136.924 32.3086V40.802H129.086V24.8916H138.702ZM137.158 41.036V32.8468L145.815 41.036H154.238V24.6576H146.049V31.6769L138.796 24.6576H128.852V41.036H137.158Z" fill="white"/>
<path d="M169.915 24.8916C174.688 24.8916 179.742 27.0208 179.742 32.3788V33.3147C179.742 38.6728 174.711 40.802 169.915 40.802H155.408V24.8916H169.915ZM155.174 41.036H169.915C175.203 41.036 179.976 38.5792 179.976 33.3147V32.3788C179.976 27.1143 175.203 24.6576 169.915 24.6576H155.174V41.036ZM167.458 36.3564C169.587 36.3564 171.786 35.4205 171.786 32.8468C171.786 30.273 169.587 29.3371 167.458 29.3371H163.129V36.3564H167.458ZM163.363 29.5711H167.458C169.587 29.5711 171.553 30.507 171.553 32.8468C171.553 35.1865 169.587 36.1225 167.458 36.1225H163.363V29.5711Z" fill="white"/>
<path d="M26.9098 37.3157C27.3544 37.3157 27.7989 37.2689 28.2435 37.1987V40.8254C27.1438 41.0126 26.0675 41.036 24.9678 41.036C23.2364 41.036 21.7155 40.4744 20.2883 39.5385L20.1713 39.4449L20.0543 39.5151C17.6677 40.7318 14.9068 41.036 12.2395 41.036C8.9638 41.036 2.27206 40.802 2.27206 36.6606C2.27206 33.5721 5.9689 32.683 8.61284 32.2384L9.22118 32.1214L8.70643 31.7939C7.11539 30.8112 5.75832 29.8285 5.75832 27.9099C5.75832 24.8214 12.2161 24.6576 14.3453 24.6576C16.6382 24.6576 22.6749 24.8448 22.6749 28.1438C22.6749 30.3432 18.7206 31.4897 16.7318 31.7705L16.1001 31.8641L20.686 34.7654L20.8264 34.6016C21.4348 33.7827 21.6453 32.4256 21.6687 31.4195H27.7521C27.682 33.4317 26.6291 35.3269 25.2018 36.7542L24.8976 37.0584L25.3188 37.152C25.8335 37.2455 26.3717 37.3157 26.9098 37.3157ZM25.3656 36.918C27.0034 35.2801 28.0095 33.2211 28.0095 31.1855H21.4582C21.4582 32.0045 21.271 33.6423 20.6392 34.4612L16.7786 32.0045C19.0014 31.6769 22.9088 30.4602 22.9088 28.1438C22.9088 24.6342 16.7786 24.4236 14.3453 24.4236C11.8183 24.4236 5.52434 24.6576 5.52434 27.9099C5.52434 29.9455 6.9516 30.975 8.58944 32.0045C5.87531 32.4724 2.03809 33.3849 2.03809 36.6606C2.03809 41.036 8.91701 41.2699 12.2395 41.2699C14.9068 41.2699 17.7379 40.9658 20.1713 39.7257C21.4816 40.6148 23.0024 41.2699 24.9678 41.2699C26.9098 41.2699 27.2608 41.2465 28.4775 41.036V36.918C27.9159 37.035 27.4012 37.0818 26.9098 37.0818C26.3951 37.0818 25.9037 37.0116 25.3656 36.918ZM16.4277 36.9414L11.0696 33.3849L10.976 33.4083C10.2039 33.6189 9.75932 34.3208 9.75932 35.0696C9.75932 37.035 12.0991 37.5731 13.4328 37.5731C14.1581 37.5731 15.3514 37.4795 16.0533 37.1286L16.4277 36.9414ZM13.4328 37.3391C10.976 37.3391 9.9933 36.1225 9.9933 35.0696C9.9933 34.4144 10.3677 33.8061 11.0462 33.6423L15.9597 36.918C15.4216 37.1753 14.3219 37.3391 13.4328 37.3391ZM16.3575 28.7288C16.3575 27.6993 15.1408 27.4653 14.3453 27.4653C13.5264 27.4653 12.3331 27.6525 12.3331 28.7054C12.3331 29.2201 12.7074 29.6179 13.0818 29.8987C13.269 30.0625 13.503 30.1794 13.6901 30.2964C13.9007 30.4134 14.0879 30.507 14.2283 30.5772L14.3219 30.624L14.3921 30.6006C15.1174 30.4134 16.3575 29.7817 16.3575 28.7288ZM14.3453 30.39C13.5264 29.9455 12.567 29.4307 12.567 28.7054C12.5436 28.1438 13.0818 27.6993 14.3453 27.6993C15.562 27.6993 16.1235 28.1438 16.1235 28.7288C16.1235 29.5477 15.1408 30.156 14.3453 30.39Z" stroke="#2CB34A" mask="url(#path-2-outside-1)"/>
<path d="M59.8286 36.2862C59.8286 39.5385 56.974 40.802 53.9791 40.802H35.495V24.8916H52.8092C55.3362 24.8916 58.6821 25.1255 58.6821 28.1438C58.6821 30.2028 57.1378 30.9984 55.1958 31.2791V31.7471C57.793 32.0747 59.8286 33.5487 59.8286 36.2862ZM55.2192 31.5131C57.3016 31.2089 58.916 30.3432 58.916 28.1438C58.916 25.0787 55.8041 24.6576 52.8092 24.6576H35.261V41.036H53.9791C57.7462 41.036 60.0625 39.2343 60.0625 36.2862C60.0625 33.7125 58.2843 31.9109 55.2192 31.5131ZM43.2162 31.0218H49.8845C50.4695 31.0218 50.9608 30.5304 50.9608 29.9455C50.9608 29.3605 50.4695 28.8692 49.8845 28.8692H43.2162V31.0218ZM49.8845 29.1031C50.3525 29.1031 50.7268 29.4775 50.7268 29.9455C50.7268 30.4134 50.3525 30.7878 49.8845 30.7878H43.4502V29.1031H49.8845ZM50.6099 36.7308C51.2884 36.7308 51.8733 36.1692 51.8733 35.4673C51.8733 34.7888 51.2884 34.2272 50.6099 34.2272H43.2162V36.7308H50.6099ZM43.4502 34.4612H50.6099C51.1714 34.4612 51.6394 34.9058 51.6394 35.4673C51.6394 36.0289 51.1714 36.4968 50.6099 36.4968H43.4502V34.4612Z" stroke="#2CB34A" mask="url(#path-2-outside-1)"/>
<path d="M80.6488 24.8916V28.8692H68.716V30.741H80.6488V34.6016H68.716V36.5904H80.6488V40.802H60.9948V24.8916H80.6488ZM80.8828 41.036V36.3564H68.95V34.8356H80.8828V30.507H68.95V29.1031H80.8828V24.6576H60.7608V41.036H80.8828Z" stroke="#2CB34A" mask="url(#path-2-outside-1)"/>
<path d="M90.5777 24.8916L93.9938 29.9923L97.3864 24.8916H106.582L97.8544 35.093V40.802H90.1331V35.093L81.3824 24.8916H90.5777ZM89.8992 41.036H98.0883V35.1865L107.096 24.6576H97.2694L93.9938 29.5711L90.7181 24.6576H80.891L89.8992 35.1865V41.036Z" stroke="#2CB34A" mask="url(#path-2-outside-1)"/>
<path d="M127.914 33.3147C127.914 39.3279 121.69 41.036 116.566 41.036H115.162C110.038 41.036 103.814 39.3279 103.814 33.3147V32.3788C103.814 26.3422 110.038 24.6576 115.162 24.6576H116.566C121.69 24.6576 127.914 26.3422 127.914 32.3788V33.3147ZM115.162 24.4236C109.945 24.4236 103.58 26.155 103.58 32.3788V33.3147C103.58 39.5151 109.945 41.2699 115.162 41.2699H116.566C121.784 41.2699 128.148 39.5151 128.148 33.3147V32.3788C128.148 26.155 121.784 24.4236 116.566 24.4236H115.162ZM116.332 36.3564C118.438 36.3564 120.427 35.2801 120.427 32.8468C120.427 30.4134 118.438 29.3371 116.332 29.3371H115.396C113.29 29.3371 111.302 30.4134 111.302 32.8468C111.302 35.2801 113.29 36.3564 115.396 36.3564H116.332ZM115.396 36.1225C113.337 36.1225 111.536 35.093 111.536 32.8468C111.536 30.6006 113.337 29.5711 115.396 29.5711H116.332C118.391 29.5711 120.193 30.6006 120.193 32.8468C120.193 35.093 118.391 36.1225 116.332 36.1225H115.396Z" stroke="#2CB34A" mask="url(#path-2-outside-1)"/>
<path d="M138.702 24.8916L146.283 32.215V24.8916H154.004V40.802H145.909L136.924 32.3086V40.802H129.086V24.8916H138.702ZM137.158 41.036V32.8468L145.815 41.036H154.238V24.6576H146.049V31.6769L138.796 24.6576H128.852V41.036H137.158Z" stroke="#2CB34A" mask="url(#path-2-outside-1)"/>
<path d="M169.915 24.8916C174.688 24.8916 179.742 27.0208 179.742 32.3788V33.3147C179.742 38.6728 174.711 40.802 169.915 40.802H155.408V24.8916H169.915ZM155.174 41.036H169.915C175.203 41.036 179.976 38.5792 179.976 33.3147V32.3788C179.976 27.1143 175.203 24.6576 169.915 24.6576H155.174V41.036ZM167.458 36.3564C169.587 36.3564 171.786 35.4205 171.786 32.8468C171.786 30.273 169.587 29.3371 167.458 29.3371H163.129V36.3564H167.458ZM163.363 29.5711H167.458C169.587 29.5711 171.553 30.507 171.553 32.8468C171.553 35.1865 169.587 36.1225 167.458 36.1225H163.363V29.5711Z" stroke="#2CB34A" mask="url(#path-2-outside-1)"/>
<path d="M129.947 25.0278C129.895 25.0247 129.845 25.0111 129.798 24.9846L126.113 22.9655C125.996 22.9006 125.925 22.7759 125.93 22.6416L126.186 15.8899L125.545 15.6196C125.41 15.5631 125.325 15.4292 125.329 15.2831L125.569 6.94257C125.574 6.75989 125.718 6.61158 125.9 6.60021L128.647 6.42556C128.662 6.42406 128.677 6.42499 128.691 6.42585C128.711 6.42706 128.731 6.42945 128.751 6.43419L133.845 7.63674C133.944 7.66044 134.026 7.72446 134.074 7.81119L135.312 8.1129C135.484 8.15521 135.598 8.31797 135.58 8.49391L134.617 17.5521C134.604 17.6776 134.524 17.7873 134.409 17.8382L132.865 18.5214C132.813 18.5442 132.757 18.555 132.701 18.5516C132.662 18.5492 132.623 18.541 132.587 18.5258L132.569 18.5188L132.125 23.6499C132.114 23.7638 132.05 23.8662 131.951 23.9251L130.146 24.982C130.085 25.0161 130.015 25.032 129.947 25.0278Z" fill="#D15927"/>
<path d="M128.67 6.77873L130.6 7.23455L133.765 7.98128L133.622 8.06468L135.228 8.45723L134.266 17.5154L132.723 18.1987L132.26 18.0077L131.774 23.6192L129.969 24.6761L126.284 22.6571L126.549 15.6604L125.683 15.2962L125.923 6.95338L128.67 6.77873ZM128.713 6.07297C128.684 6.07118 128.654 6.07175 128.626 6.07357L125.878 6.24705C125.513 6.26978 125.227 6.56766 125.216 6.93294L124.975 15.2746C124.966 15.5668 125.138 15.8334 125.407 15.9466L125.823 16.1217L125.577 22.6296C125.567 22.8969 125.709 23.1476 125.944 23.2764L129.629 25.2954C129.722 25.3459 129.824 25.3745 129.926 25.3807C130.064 25.3891 130.203 25.3574 130.326 25.2857L132.132 24.2288C132.33 24.1133 132.459 23.9086 132.479 23.6796L132.894 18.8844C132.933 18.875 132.972 18.862 133.009 18.8453L134.552 18.1621C134.784 18.0592 134.943 17.8422 134.97 17.59L135.932 8.53177C135.97 8.17989 135.74 7.85431 135.396 7.76968L134.28 7.4978C134.187 7.39889 134.065 7.32539 133.927 7.29338L130.762 6.54664L128.832 6.09083C128.793 6.08134 128.753 6.07539 128.713 6.07297Z" fill="black"/>
<path d="M127.433 7.4227L126.669 7.18516L125.923 6.95338L125.682 15.295L126.746 15.7432L127.433 7.4227Z" fill="#FBBF18"/>
<path d="M125.923 6.95339L128.67 6.77874L130.6 7.23455L133.765 7.98129L133.621 8.06469L135.228 8.45724L134.324 8.64446L133.512 8.81365L132.645 8.59225L131.852 8.39071L131.431 8.49389L131.132 8.56781L128.722 7.98491L126.856 7.53412L127.433 7.42271L126.669 7.18516L125.923 6.95339Z" fill="#FFE4B7"/>
<path d="M126.763 15.8777L126.287 15.7154L126.574 7.57721L126.856 7.53412L127.104 7.59636L126.763 15.8777Z" fill="#D15927"/>
<path d="M131.132 8.5678L130.403 18.6661L129.969 24.675L126.284 22.6559L126.856 7.53411L128.723 7.98491L131.132 8.5678Z" fill="#FBBF18"/>
<path d="M130.6 7.23455L130.098 7.11559L127.086 7.59058L128.48 12.3432C128.48 12.3432 128.489 12.3862 128.547 12.3968C128.605 12.4074 128.627 12.3591 128.627 12.3591L130.528 8.4214L133.274 7.86532L130.6 7.23455Z" fill="#D15927"/>
<path d="M132.468 10.3796L132.397 16.4152L131.774 23.6192L129.969 24.675L130.402 18.6661L131.132 8.56781L131.431 8.49389L131.852 8.3907L132.468 10.3796Z" fill="#D15927"/>
<path d="M133.512 8.81365L132.645 8.59225L131.852 8.3907L131.105 17.5305L132.722 18.1987L133.124 13.4181L133.512 8.81365Z" fill="#FBBF18"/>
<path d="M133.512 8.81365L134.324 8.64446L135.228 8.45723L134.266 17.5143L132.723 18.1987L133.125 13.4181L133.512 8.81365Z" fill="#D15927"/>
<path d="M130.066 25.0162L129.831 24.9996L130.285 18.6578L131.031 8.28543L131.266 8.30205L130.52 18.6744L130.066 25.0162Z" fill="white"/>
<path d="M132.808 18.7281L132.573 18.708L133.007 13.4086L133.412 8.51127L133.647 8.53141L133.242 13.4275L132.808 18.7281Z" fill="white"/>
<path d="M130.211 7.45175C128.337 7.33816 126.906 5.72137 127.02 3.84875C127.132 1.97488 128.749 0.542844 130.623 0.656437C132.496 0.77003 133.928 2.38689 133.815 4.26069C133.701 6.13331 132.085 7.56534 130.211 7.45175Z" fill="#FBBF18"/>
<path d="M130.601 1.00933C132.283 1.1113 133.564 2.55724 133.462 4.23931C133.36 5.92137 131.914 7.20085 130.232 7.09888C128.55 6.99691 127.27 5.55104 127.372 3.87015C127.473 2.18801 128.919 0.907356 130.601 1.00933ZM130.644 0.303564C128.576 0.178205 126.791 1.75823 126.665 3.82729C126.54 5.89517 128.12 7.67921 130.188 7.80457C132.256 7.92993 134.041 6.3499 134.166 4.28202C134.293 2.21303 132.712 0.428923 130.644 0.303564Z" fill="black"/>
<path d="M132.095 2.29109C132.095 2.29109 133.484 3.48153 132.685 5.31023C131.809 7.31255 130.179 6.90439 129.399 6.56551C129.399 6.56551 131.19 6.55606 131.813 4.99291C132.435 3.43094 132.095 2.29109 132.095 2.29109Z" fill="#D15927"/>
<path d="M128.127 3.68216C128.102 3.68067 128.077 3.67557 128.051 3.66694C127.897 3.61511 127.814 3.45068 127.865 3.29673C127.888 3.22612 128.454 1.57575 130.514 1.51052C130.676 1.505 130.812 1.6325 130.817 1.79575C130.823 1.959 130.696 2.09413 130.532 2.09958C128.895 2.15145 128.442 3.42856 128.424 3.48174C128.381 3.61016 128.256 3.69001 128.127 3.68216Z" fill="#FFE4B7"/>
</svg>
