<?xml version="1.0" encoding="utf-8"?>
<!-- Generator: Adobe Illustrator 16.0.0, SVG Export Plug-In . SVG Version: 6.00 Build 0)  -->
<!DOCTYPE svg PUBLIC "-//W3C//DTD SVG 1.1//EN" "http://www.w3.org/Graphics/SVG/1.1/DTD/svg11.dtd">
<svg version="1.1" id="Layer_1" xmlns="http://www.w3.org/2000/svg" xmlns:xlink="http://www.w3.org/1999/xlink" x="0px" y="0px"
	 width="347.586px" height="52.576px" viewBox="0 0 347.586 52.576" enable-background="new 0 0 347.586 52.576"
	 xml:space="preserve">
<g>
	<path fill="#2CB34A" d="M280.4,26.594h1.039c1.152,0,1.729-0.501,1.729-1.504c0-1.002-0.576-1.504-1.729-1.504H280.4V26.594z
		 M280.4,33.122h-3.137V21.058h4.992c1.355,0,2.389,0.352,3.104,1.056c0.726,0.704,1.089,1.696,1.089,2.976
		c0,1.28-0.363,2.271-1.089,2.977c-0.715,0.703-1.748,1.056-3.104,1.056H280.4V33.122z M287.836,24.914h2.896v1.344
		c0.309-0.491,0.688-0.864,1.136-1.12c0.448-0.267,0.97-0.4,1.567-0.4c0.074,0,0.154,0,0.24,0c0.096,0,0.202,0.011,0.32,0.032v2.768
		c-0.385-0.192-0.8-0.288-1.248-0.288c-0.672,0-1.18,0.203-1.52,0.607c-0.332,0.395-0.496,0.977-0.496,1.744v3.521h-2.896V24.914z
		 M301.383,27.826c-0.096-0.406-0.294-0.73-0.592-0.976c-0.299-0.246-0.662-0.368-1.088-0.368c-0.448,0-0.816,0.117-1.104,0.352
		c-0.278,0.234-0.455,0.565-0.528,0.992H301.383z M297.991,29.506c0,1.248,0.586,1.872,1.76,1.872c0.629,0,1.104-0.256,1.424-0.769
		h2.8c-0.565,1.878-1.979,2.816-4.24,2.816c-0.693,0-1.327-0.102-1.903-0.304c-0.576-0.214-1.072-0.513-1.488-0.896
		c-0.405-0.385-0.72-0.844-0.944-1.377c-0.224-0.533-0.336-1.131-0.336-1.791c0-0.684,0.106-1.297,0.32-1.841
		c0.213-0.555,0.518-1.024,0.912-1.408c0.395-0.384,0.869-0.677,1.424-0.88c0.565-0.213,1.2-0.32,1.904-0.32
		c0.693,0,1.316,0.107,1.872,0.32c0.554,0.203,1.024,0.501,1.407,0.896c0.385,0.395,0.678,0.88,0.881,1.456
		c0.201,0.565,0.304,1.205,0.304,1.92v0.304H297.991z M311.182,27.025c-0.533-0.277-1.056-0.416-1.567-0.416
		c-0.267,0-0.485,0.053-0.656,0.16c-0.16,0.106-0.24,0.25-0.24,0.432c0,0.096,0.011,0.176,0.032,0.239
		c0.032,0.054,0.091,0.107,0.176,0.16c0.096,0.054,0.229,0.102,0.4,0.145c0.181,0.043,0.416,0.096,0.704,0.16
		c0.8,0.16,1.396,0.447,1.792,0.863c0.395,0.406,0.592,0.929,0.592,1.568c0,0.48-0.096,0.912-0.288,1.296s-0.459,0.71-0.8,0.976
		c-0.342,0.257-0.752,0.454-1.232,0.593c-0.479,0.149-1.008,0.224-1.584,0.224c-1.109,0-2.203-0.314-3.279-0.943l1.056-2.049
		c0.812,0.555,1.579,0.832,2.304,0.832c0.268,0,0.485-0.059,0.656-0.176s0.256-0.267,0.256-0.447c0-0.107-0.016-0.192-0.048-0.257
		c-0.021-0.074-0.075-0.139-0.16-0.192c-0.085-0.063-0.213-0.117-0.384-0.159c-0.16-0.054-0.373-0.106-0.641-0.16
		c-0.896-0.182-1.524-0.448-1.888-0.8c-0.352-0.363-0.528-0.859-0.528-1.488c0-0.459,0.086-0.869,0.256-1.232
		c0.172-0.374,0.416-0.688,0.736-0.944c0.32-0.256,0.704-0.454,1.152-0.592c0.459-0.139,0.965-0.208,1.52-0.208
		c0.907,0,1.787,0.176,2.641,0.528L311.182,27.025z M319.883,27.826c-0.096-0.406-0.294-0.73-0.592-0.976
		c-0.299-0.246-0.662-0.368-1.088-0.368c-0.448,0-0.816,0.117-1.104,0.352c-0.278,0.234-0.455,0.565-0.528,0.992H319.883z
		 M316.491,29.506c0,1.248,0.586,1.872,1.76,1.872c0.629,0,1.104-0.256,1.424-0.769h2.8c-0.565,1.878-1.979,2.816-4.24,2.816
		c-0.693,0-1.327-0.102-1.903-0.304c-0.576-0.214-1.072-0.513-1.488-0.896c-0.405-0.385-0.72-0.844-0.944-1.377
		c-0.224-0.533-0.336-1.131-0.336-1.791c0-0.684,0.106-1.297,0.32-1.841c0.213-0.555,0.518-1.024,0.912-1.408
		c0.395-0.384,0.869-0.677,1.424-0.88c0.565-0.213,1.2-0.32,1.904-0.32c0.693,0,1.316,0.107,1.872,0.32
		c0.554,0.203,1.024,0.501,1.407,0.896c0.385,0.395,0.678,0.88,0.881,1.456c0.201,0.565,0.304,1.205,0.304,1.92v0.304H316.491z
		 M324.242,24.914h2.896v1.04c0.395-0.48,0.795-0.8,1.199-0.96c0.405-0.171,0.88-0.256,1.424-0.256c0.576,0,1.067,0.096,1.473,0.288
		c0.416,0.181,0.768,0.443,1.056,0.784c0.235,0.277,0.396,0.586,0.479,0.928c0.086,0.341,0.129,0.731,0.129,1.168v5.216h-2.896
		v-4.144c0-0.406-0.032-0.731-0.096-0.977c-0.053-0.256-0.155-0.459-0.305-0.607c-0.127-0.129-0.271-0.219-0.432-0.272
		s-0.331-0.08-0.512-0.08c-0.491,0-0.869,0.149-1.137,0.448c-0.256,0.287-0.383,0.703-0.383,1.248v4.384h-2.896V24.914z
		 M338.1,27.33v5.792h-2.896V27.33h-0.96v-2.416h0.96V22.45h2.896v2.464h1.647v2.416H338.1z M346.354,27.025
		c-0.532-0.277-1.056-0.416-1.567-0.416c-0.267,0-0.485,0.053-0.656,0.16c-0.16,0.106-0.239,0.25-0.239,0.432
		c0,0.096,0.01,0.176,0.031,0.239c0.032,0.054,0.092,0.107,0.176,0.16c0.096,0.054,0.229,0.102,0.4,0.145
		c0.181,0.043,0.416,0.096,0.704,0.16c0.8,0.16,1.397,0.447,1.792,0.863c0.395,0.406,0.592,0.929,0.592,1.568
		c0,0.48-0.096,0.912-0.288,1.296s-0.459,0.71-0.8,0.976c-0.341,0.257-0.752,0.454-1.232,0.593
		c-0.479,0.149-1.008,0.224-1.584,0.224c-1.108,0-2.203-0.314-3.279-0.943l1.056-2.049c0.812,0.555,1.579,0.832,2.304,0.832
		c0.268,0,0.485-0.059,0.656-0.176s0.256-0.267,0.256-0.447c0-0.107-0.016-0.192-0.048-0.257c-0.021-0.074-0.075-0.139-0.16-0.192
		c-0.085-0.063-0.213-0.117-0.384-0.159c-0.16-0.054-0.373-0.106-0.641-0.16c-0.896-0.182-1.524-0.448-1.888-0.8
		c-0.352-0.363-0.528-0.859-0.528-1.488c0-0.459,0.086-0.869,0.257-1.232c0.171-0.374,0.416-0.688,0.735-0.944
		c0.32-0.256,0.705-0.454,1.152-0.592c0.459-0.139,0.965-0.208,1.52-0.208c0.908,0,1.787,0.176,2.641,0.528L346.354,27.025z"/>
	<path fill="#EE363D" d="M60.671,5.222c-2.692-4.65-18.368-0.642-35.012,8.968C9.015,23.794-2.295,35.352,0.396,40.01
		c2.317,4,14.221,1.588,28.089-5.258c0.622-0.338,0.579-1.072-0.233-0.811c-8.548,3.146-15.676,3.338-17.527,0
		c-2.452-4.432,5.32-13.407,17.351-20.04C40.106,7.262,51.848,5.469,54.299,9.9c1.124,2.032,0.099,5.01-2.494,8.284
		c-0.014,0.014-0.014,0.028-0.035,0.049c-0.961,1.192-0.262,1.545,0.424,0.967C58.834,13.323,62.289,8.023,60.671,5.222z"/>
	<path fill="#2CB34A" d="M35.662,35.838c-1.483-0.396-2.691-0.938-3.624-1.623l1.681-3.797c0.989,0.629,2.042,1.108,3.151,1.439
		c1.116,0.332,2.232,0.502,3.356,0.502c1.145,0,2.013-0.162,2.628-0.473c0.607-0.318,0.911-0.756,0.911-1.327
		c0-0.515-0.275-0.938-0.827-1.271c-0.551-0.324-1.589-0.656-3.115-0.98c-1.921-0.381-3.412-0.854-4.479-1.411
		c-1.066-0.558-1.809-1.221-2.239-1.983c-0.431-0.762-0.643-1.679-0.643-2.766c0-1.234,0.353-2.35,1.06-3.352
		s1.688-1.778,2.967-2.343c1.271-0.557,2.727-0.839,4.366-0.839c1.47,0,2.89,0.205,4.267,0.614c1.378,0.409,2.458,0.945,3.236,1.609
		l-1.653,3.796c-0.89-0.628-1.837-1.107-2.826-1.439C42.889,19.862,41.9,19.7,40.911,19.7c-0.968,0-1.752,0.184-2.338,0.557
		c-0.593,0.374-0.883,0.875-0.883,1.496c0,0.346,0.106,0.628,0.311,0.854c0.212,0.226,0.601,0.452,1.166,0.67
		c0.572,0.219,1.427,0.452,2.572,0.699c1.844,0.402,3.299,0.882,4.352,1.439c1.053,0.564,1.802,1.221,2.24,1.969
		c0.438,0.748,0.657,1.65,0.657,2.695c0,1.976-0.77,3.535-2.31,4.664s-3.709,1.693-6.506,1.693
		C38.65,36.431,37.146,36.232,35.662,35.838z"/>
	<path fill="#2CB34A" d="M61.149,31.618c0.495-0.628,0.742-1.531,0.742-2.71c0-1.199-0.247-2.116-0.742-2.751
		s-1.201-0.959-2.112-0.959c-0.897,0-1.597,0.332-2.112,0.988s-0.77,1.581-0.77,2.78c0,1.158,0.24,2.047,0.742,2.668
		c0.495,0.613,1.208,0.924,2.141,0.924C59.948,32.557,60.654,32.246,61.149,31.618z M66.97,21.697v14.479h-5.08v-1.969
		c-0.41,0.685-1.024,1.221-1.822,1.608c-0.798,0.389-1.675,0.586-2.621,0.586c-1.236,0-2.338-0.303-3.313-0.917
		c-0.968-0.606-1.724-1.476-2.268-2.611c-0.537-1.129-0.812-2.435-0.812-3.916c0-1.503,0.275-2.83,0.833-3.994
		c0.551-1.157,1.307-2.061,2.282-2.709c0.975-0.642,2.063-0.967,3.285-0.967c0.947,0,1.823,0.197,2.607,0.614
		c0.792,0.409,1.399,0.953,1.837,1.637V21.69h5.072V21.697z"/>
	<path fill="#2CB34A" d="M70.348,21.697v-0.396c0-1.961,0.516-3.486,1.526-4.594c1.017-1.101,2.5-1.658,4.436-1.658
		c1.109,0,2,0.134,2.685,0.402v3.966c-0.551-0.134-1.01-0.198-1.37-0.198c-0.608,0-1.116,0.176-1.519,0.529
		c-0.396,0.353-0.601,0.889-0.601,1.609v0.346h2.826v3.789h-2.826v10.69h-5.171v-10.69C70.349,25.493,70.426,21.697,70.348,21.697z"
		/>
	<path fill="#2CB34A" d="M90.016,31.618c0.494-0.628,0.742-1.531,0.742-2.71c0-1.199-0.248-2.116-0.742-2.751
		c-0.495-0.635-1.194-0.959-2.112-0.959c-0.89,0-1.597,0.332-2.112,0.988c-0.516,0.656-0.77,1.581-0.77,2.78
		c0,1.158,0.247,2.047,0.742,2.668c0.495,0.613,1.208,0.924,2.141,0.924C88.822,32.557,89.521,32.246,90.016,31.618z M95.837,21.697
		v14.479h-5.08v-1.969c-0.417,0.685-1.024,1.221-1.83,1.608c-0.798,0.389-1.674,0.586-2.621,0.586c-1.236,0-2.338-0.303-3.306-0.917
		c-0.968-0.606-1.724-1.476-2.268-2.611c-0.544-1.129-0.812-2.435-0.812-3.916c0-1.503,0.275-2.83,0.826-3.994
		c0.551-1.157,1.314-2.061,2.282-2.709c0.975-0.642,2.062-0.967,3.278-0.967c0.954,0,1.823,0.197,2.614,0.614
		c0.792,0.409,1.406,0.953,1.844,1.637V21.69h5.072V21.697z"/>
	<path fill="#2CB34A" d="M109.663,21.669v4.707c-0.812-0.381-1.596-0.572-2.359-0.572c-2.162,0-3.243,1.038-3.243,3.112v7.268
		h-5.143V25.86c0-1.552-0.078-2.942-0.226-4.156h4.832l0.311,2.42c0.339-0.896,0.89-1.581,1.646-2.053
		c0.756-0.473,1.611-0.713,2.557-0.713C108.745,21.358,109.282,21.464,109.663,21.669z"/>
	<path fill="#2CB34A" d="M116.249,21.958h-5.164v14.479h5.164V21.958z"/>
	<path fill="#2CB34A" d="M120.866,34.412c-1.385-1.326-2.077-3.146-2.077-5.439c0-1.524,0.332-2.865,1.01-4.016
		c0.678-1.157,1.625-2.06,2.84-2.695c1.215-0.635,2.628-0.953,4.225-0.953c1.059,0,2.112,0.155,3.143,0.466
		c1.025,0.317,1.844,0.741,2.452,1.27l-1.314,3.557c-0.509-0.417-1.116-0.748-1.795-0.995c-0.685-0.247-1.342-0.374-1.971-0.374
		c-1.066,0-1.886,0.303-2.451,0.91c-0.572,0.607-0.855,1.51-0.855,2.709c0,1.215,0.283,2.132,0.855,2.752
		c0.572,0.614,1.399,0.925,2.487,0.925c0.628,0,1.278-0.12,1.957-0.374c0.671-0.247,1.271-0.578,1.78-0.994l1.314,3.506
		c-0.629,0.559-1.462,0.981-2.494,1.285c-1.038,0.303-2.148,0.451-3.327,0.451C124.172,36.402,122.258,35.739,120.866,34.412z"/>
	<path fill="#2CB34A" d="M144.295,28.875c0-1.257-0.24-2.181-0.707-2.781c-0.459-0.6-1.165-0.896-2.091-0.896
		c-0.954,0-1.667,0.296-2.14,0.896c-0.474,0.6-0.714,1.524-0.714,2.781c0,1.27,0.24,2.208,0.714,2.808
		c0.473,0.6,1.186,0.896,2.14,0.896C143.362,32.586,144.295,31.344,144.295,28.875z M137.273,35.514
		c-1.201-0.606-2.127-1.481-2.77-2.625c-0.65-1.143-0.968-2.477-0.968-4.014c0-1.546,0.325-2.879,0.968-4.022
		c0.643-1.136,1.569-2.011,2.77-2.618c1.194-0.607,2.606-0.91,4.224-0.91c1.597,0,2.989,0.311,4.175,0.924
		c1.194,0.614,2.106,1.489,2.756,2.625c0.65,1.129,0.967,2.462,0.967,4.001c0,1.537-0.325,2.871-0.967,4.008
		c-0.643,1.129-1.562,2.004-2.756,2.617c-1.186,0.621-2.578,0.932-4.175,0.932C139.879,36.432,138.467,36.128,137.273,35.514z"/>
	<path fill="#2CB34A" d="M174.016,22.863c0.812,1.023,1.215,2.597,1.215,4.7v8.637h-5.164v-8.496c0-0.854-0.128-1.475-0.389-1.849
		c-0.261-0.381-0.692-0.572-1.3-0.572c-0.727,0-1.286,0.268-1.688,0.797c-0.403,0.537-0.601,1.277-0.601,2.251v7.868h-5.164v-8.496
		c0-0.854-0.134-1.475-0.403-1.849c-0.268-0.381-0.692-0.572-1.285-0.572c-0.721,0-1.279,0.268-1.668,0.797
		c-0.388,0.537-0.586,1.277-0.586,2.251v7.868h-5.171V25.883c0-1.553-0.071-2.942-0.226-4.163h4.853l0.254,2.025
		c0.438-0.783,1.053-1.383,1.844-1.799c0.791-0.417,1.696-0.621,2.727-0.621c2.077,0,3.483,0.875,4.225,2.618
		c0.516-0.798,1.201-1.433,2.041-1.913c0.848-0.473,1.767-0.712,2.756-0.712C171.96,21.324,173.203,21.833,174.016,22.863z"/>
	<path fill="#2AB24B" d="M116.405,14.726h-5.164v4.643h5.164V14.726z"/>
	<path fill="#29A44A" d="M208.525,8.884V0.566h1.25c0.557,0,1,0.043,1.33,0.129c0.334,0.086,0.615,0.232,0.846,0.437
		c0.234,0.212,0.418,0.476,0.556,0.792c0.14,0.32,0.21,0.643,0.21,0.971c0,0.595-0.228,1.101-0.685,1.513
		c0.442,0.151,0.79,0.415,1.046,0.792c0.259,0.374,0.388,0.809,0.388,1.303c0,0.649-0.229,1.199-0.69,1.648
		c-0.275,0.276-0.586,0.469-0.932,0.577c-0.378,0.104-0.849,0.156-1.417,0.156h-1.901V8.884z M209.782,4.137h0.393
		c0.468,0,0.81-0.104,1.026-0.31c0.217-0.206,0.326-0.511,0.326-0.914c0-0.391-0.112-0.688-0.334-0.892
		c-0.223-0.202-0.547-0.305-0.969-0.305h-0.442V4.137z M209.782,7.703h0.776c0.566,0,0.983-0.112,1.248-0.334
		c0.281-0.241,0.422-0.546,0.422-0.917c0-0.36-0.136-0.66-0.405-0.906c-0.263-0.241-0.73-0.361-1.405-0.361h-0.636V7.703z"/>
	<path fill="#29A44A" d="M219.641,1.745h-3.334v1.999h3.237v1.179h-3.237v2.78h3.334v1.18h-4.59V0.566h4.59V1.745z"/>
	<path fill="#29A44A" d="M222.969,5.29l-2.716-4.724h1.444l1.9,3.324l1.909-3.324h1.443l-2.726,4.725v3.593h-1.256V5.29z"/>
	<path fill="#29A44A" d="M227.073,4.687c0-1.171,0.428-2.176,1.286-3.017c0.854-0.841,1.882-1.26,3.08-1.26
		c1.186,0,2.203,0.424,3.05,1.271c0.852,0.848,1.276,1.865,1.276,3.055c0,1.195-0.428,2.21-1.283,3.044
		c-0.857,0.837-1.894,1.254-3.106,1.254c-1.074,0-2.038-0.372-2.894-1.114C227.543,7.097,227.073,6.019,227.073,4.687z
		 M228.338,4.703c0,0.919,0.309,1.675,0.928,2.269c0.614,0.593,1.323,0.889,2.127,0.889c0.873,0,1.609-0.302,2.209-0.906
		c0.601-0.61,0.9-1.354,0.9-2.23c0-0.887-0.296-1.631-0.889-2.23c-0.59-0.604-1.318-0.906-2.188-0.906
		c-0.865,0-1.597,0.302-2.193,0.906C228.637,3.09,228.338,3.826,228.338,4.703z"/>
	<path fill="#29A44A" d="M237.348,8.884V0l6.065,6.346v-5.78h1.254v8.825l-6.065-6.332v5.824L237.348,8.884L237.348,8.884z"/>
	<path fill="#29A44A" d="M246.661,8.884V0.566h1.745c0.837,0,1.496,0.083,1.982,0.248c0.521,0.162,0.993,0.437,1.416,0.825
		c0.858,0.783,1.287,1.812,1.287,3.086c0,1.279-0.447,2.312-1.341,3.104c-0.449,0.395-0.919,0.67-1.411,0.825
		c-0.459,0.155-1.111,0.232-1.955,0.232h-1.724V8.884z M247.917,7.703h0.565c0.563,0,1.033-0.059,1.406-0.178
		c0.373-0.125,0.711-0.325,1.012-0.598c0.617-0.563,0.928-1.298,0.928-2.204c0-0.913-0.307-1.652-0.917-2.22
		c-0.55-0.507-1.359-0.76-2.429-0.76h-0.566L247.917,7.703L247.917,7.703z"/>
	
		<linearGradient id="SVGID_1_" gradientUnits="userSpaceOnUse" x1="33.1001" y1="138.3779" x2="16.4891" y2="122.5081" gradientTransform="matrix(1 0 0 -1 219 156.5)">
		<stop  offset="0" style="stop-color:#B3D34A"/>
		<stop  offset="0.5237" style="stop-color:#00A44C"/>
		<stop  offset="1" style="stop-color:#004667"/>
	</linearGradient>
	<path fill="url(#SVGID_1_)" d="M246.036,13.245c4.8,0,9.092,2.238,11.88,5.726c-0.947,2.427-1.922,4.492-2.951,6.261
		c-0.833,1.432-1.721,2.701-2.675,3.83c0.021-0.209,0.032-0.42,0.032-0.635c0-3.466-2.819-6.286-6.286-6.286
		c-3.464,0-6.285,2.82-6.285,6.286c0,3.467,2.819,6.285,6.285,6.285c1.34,0,2.767-0.557,3.789-1.273l-0.185,3.51
		c-1.108,0.471-2.326,0.73-3.604,0.73c-5.101,0-9.251-4.149-9.251-9.252c0-5.101,4.148-9.251,9.251-9.251
		c1.772,0,3.429,0.501,4.837,1.368l-1.053,1.415l5.437-0.055l-1.513-5.222l-1.096,1.473c-1.908-1.23-4.18-1.946-6.612-1.946
		c-6.737,0-12.218,5.481-12.218,12.218c0,4.731,2.711,8.845,6.658,10.873h-5.022c-0.287-0.279-0.563-0.569-0.827-0.87
		c-2.35-2.674-3.775-6.176-3.775-10.003C230.852,20.056,237.665,13.245,246.036,13.245z"/>
	<path opacity="0.3" fill="#9F1C47" enable-background="new    " d="M232.716,35.705c0.538,0.979,1.181,1.894,1.912,2.727
		c0.265,0.301,0.541,0.59,0.828,0.871h5.021c-1.365-0.703-2.584-1.655-3.594-2.795C235.557,36.425,234.158,36.178,232.716,35.705z
		 M245.79,34.707c-1.209,0.571-2.817,1.18-4.706,1.531c1.432,0.912,3.132,1.439,4.953,1.439c1.277,0,2.494-0.26,3.604-0.73
		l0.185-3.509c-1.022,0.717-2.447,1.273-3.788,1.273C245.954,34.713,245.872,34.711,245.79,34.707z"/>
	
		<radialGradient id="SVGID_2_" cx="-465.8242" cy="448.6914" r="1.0001" gradientTransform="matrix(-12.4702 0 0 12.4702 -5561.0005 -5563.2598)" gradientUnits="userSpaceOnUse">
		<stop  offset="0.4788" style="stop-color:#E8242A"/>
		<stop  offset="0.6688" style="stop-color:#DD2429"/>
		<stop  offset="1" style="stop-color:#C02327"/>
	</radialGradient>
	<path fill="url(#SVGID_2_)" d="M254.395,37.447c-3.297,2.756-7.229,4.66-11.896,5.747c1.136,0.272,2.319,0.417,3.537,0.417
		c8.139,0,14.802-6.438,15.167-14.488C259.252,32.533,257.016,35.256,254.395,37.447z M234.627,38.432
		c0.867,0.988,1.854,1.861,2.946,2.598c6.147-0.695,11.052-2.625,14.919-5.856c3.224-2.695,5.826-6.337,8.035-11.281
		c-0.385-1.23-0.926-2.395-1.594-3.469c-0.863,2.111-1.75,3.949-2.687,5.557c-1.661,2.853-3.531,5.112-5.72,6.907
		c-0.26,0.214-0.527,0.423-0.799,0.626C245.871,36.381,240.993,37.978,234.627,38.432z"/>
	
		<linearGradient id="SVGID_3_" gradientUnits="userSpaceOnUse" x1="9.9468" y1="117.8682" x2="-16.2515" y2="117.8682" gradientTransform="matrix(1 0 0 -1 219 156.5)">
		<stop  offset="0" style="stop-color:#B3D34A"/>
		<stop  offset="0.5237" style="stop-color:#00A44C"/>
		<stop  offset="1" style="stop-color:#004667"/>
	</linearGradient>
	<path fill="url(#SVGID_3_)" d="M205.904,33.652h23.041v3.32h-18.37c-1.745,0-2.771-0.607-3.228-1.686
		c-1.298,0.502-1.564,1.482-1.578,2.211c-0.01,0.564,0.125,2.795,4.806,2.795h18.372v3.32h-18.372c-1.806,0-3.476-0.373-4.937-1.09
		c-0.002-0.001-0.003-0.001-0.006-0.002c-0.705-0.328-1.333-0.813-1.841-1.402C201.963,38.995,202.463,35.807,205.904,33.652z"/>
	<path opacity="0.3" fill="#9F1C47" enable-background="new    " d="M205.633,42.521c-0.705-0.328-1.333-0.812-1.841-1.402
		c-1.831-2.122-1.331-5.311,2.112-7.466h11.261c-4.765,1.085-7.407,1.734-9.208,2.513c-0.264-0.242-0.466-0.535-0.611-0.878
		c-1.289,0.497-1.561,1.466-1.576,2.194c-1.927,1.639-2.092,3.744-0.238,4.949c0.076,0.049,0.146,0.098,0.216,0.145
		c-0.036-0.018-0.073-0.033-0.108-0.051C205.637,42.522,205.635,42.521,205.633,42.521z"/>
	
		<radialGradient id="SVGID_4_" cx="-471.6074" cy="455.5391" r="1" gradientTransform="matrix(-9.4782 0 0 9.4782 -4254.6841 -4299.4819)" gradientUnits="userSpaceOnUse">
		<stop  offset="0.4788" style="stop-color:#E8242A"/>
		<stop  offset="0.6688" style="stop-color:#DD2429"/>
		<stop  offset="1" style="stop-color:#C02327"/>
	</radialGradient>
	<path fill="url(#SVGID_4_)" d="M202.883,13.245v9.958h12.508h6.482c4.213,0,5.9-1.566,5.9-4.112c0-1.251-0.158-2.241-0.68-3.024
		c-1.556-2.337-4.871-2.822-6.59-2.822H202.883z"/>
	<path opacity="0.31" fill="#034E63" enable-background="new    " d="M224.161,13.886c1.132,0.424,2.218,1.106,2.932,2.181
		c0.522,0.783,0.679,1.773,0.679,3.024c0,2.546-1.688,4.112-5.899,4.112h-6.481h-2.861
		C232.816,20.064,225.454,14.378,224.161,13.886z"/>
	
		<linearGradient id="SVGID_5_" gradientUnits="userSpaceOnUse" x1="10.8608" y1="127.9092" x2="-18.5796" y2="127.9092" gradientTransform="matrix(1 0 0 -1 219 156.5)">
		<stop  offset="0" style="stop-color:#B3D34A"/>
		<stop  offset="0.5237" style="stop-color:#00A44C"/>
		<stop  offset="1" style="stop-color:#004667"/>
	</linearGradient>
	<path fill="url(#SVGID_5_)" d="M203.794,41.118c-0.938-1.106-0.881-2.11-0.483-3.089c0.529-1.301,2.273-2.463,5.377-3.145
		c3.455-0.758,13.705-2.857,13.836-2.895c2.5-0.711,4.519-2.155,5.832-4.176c0.916-1.406,1.429-3.026,1.506-4.688
		c-0.907,2.225-3.141,4.484-8.311,5.688l-12.562,2.705C201.645,33.133,201.37,38.307,203.794,41.118z M200.421,34.264
		c0.834-2.395,3.071-4.93,8.64-6.228l11.801-2.638c5.816-1.066,7.078-3.656,7.078-6.309c0-1.25-0.323-2.241-0.846-3.024
		c1.527,3.325-2.794,4.933-4.806,5.479c-0.168,0.059-13.91,3.242-13.948,3.25c-2.559,0.57-4.675,1.919-6.117,3.901
		C201.035,30.33,200.41,32.277,200.421,34.264z"/>
	
		<radialGradient id="SVGID_6_" cx="-356.1528" cy="318.8633" r="1.0001" gradientTransform="matrix(2.5014 0 0 -2.5014 1112.785 847.3356)" gradientUnits="userSpaceOnUse">
		<stop  offset="0.4788" style="stop-color:#E8242A"/>
		<stop  offset="0.6688" style="stop-color:#DD2429"/>
		<stop  offset="1" style="stop-color:#C02327"/>
	</radialGradient>
	<path fill="url(#SVGID_6_)" d="M221.471,50.095l-1.8-3.13h0.957l1.261,2.201l1.264-2.201h0.957l-1.807,3.13v2.382h-0.83v-2.382
		H221.471z"/>
	
		<radialGradient id="SVGID_7_" cx="-344.8242" cy="305.4512" r="1.0005" gradientTransform="matrix(2.2255 0 0 -2.2255 993.6526 729.4859)" gradientUnits="userSpaceOnUse">
		<stop  offset="0.4788" style="stop-color:#E8242A"/>
		<stop  offset="0.6688" style="stop-color:#DD2429"/>
		<stop  offset="1" style="stop-color:#C02327"/>
	</radialGradient>
	<path fill="url(#SVGID_7_)" d="M227.785,47.746h-2.21v1.324h2.146v0.781h-2.146v1.843h2.21v0.781h-3.041v-5.511h3.041V47.746z"/>
	
		<radialGradient id="SVGID_8_" cx="-366.0835" cy="330.6172" r="1.0003" gradientTransform="matrix(2.8066 0 0 -2.8066 1258.3569 977.4437)" gradientUnits="userSpaceOnUse">
		<stop  offset="0.4788" style="stop-color:#E8242A"/>
		<stop  offset="0.6688" style="stop-color:#DD2429"/>
		<stop  offset="1" style="stop-color:#C02327"/>
	</radialGradient>
	<path fill="url(#SVGID_8_)" d="M232.117,51.138h-2.36l-0.614,1.339h-0.896l2.727-5.857l2.631,5.857h-0.91L232.117,51.138z
		 M231.777,50.355l-0.818-1.874l-0.857,1.874H231.777z"/>
	
		<radialGradient id="SVGID_9_" cx="-349.0996" cy="310.5127" r="1" gradientTransform="matrix(2.3221 0 0 -2.3221 1046.7357 770.7745)" gradientUnits="userSpaceOnUse">
		<stop  offset="0.4788" style="stop-color:#E8242A"/>
		<stop  offset="0.6688" style="stop-color:#DD2429"/>
		<stop  offset="1" style="stop-color:#C02327"/>
	</radialGradient>
	<path fill="url(#SVGID_9_)" d="M236.159,50.127l1.706,2.349h-1.018l-1.574-2.256h-0.149v2.256h-0.832v-5.511h0.976
		c0.728,0,1.252,0.138,1.578,0.411c0.356,0.305,0.534,0.708,0.534,1.206c0,0.39-0.112,0.725-0.336,1.007
		C236.82,49.868,236.525,50.049,236.159,50.127z M235.123,49.494h0.264c0.787,0,1.182-0.3,1.182-0.902
		c0-0.563-0.383-0.846-1.149-0.846h-0.296V49.494z"/>
	
		<radialGradient id="SVGID_10_" cx="-351.3516" cy="313.1797" r="1" gradientTransform="matrix(2.3766 0 0 -2.3766 1075.1986 794.0122)" gradientUnits="userSpaceOnUse">
		<stop  offset="0.4788" style="stop-color:#E8242A"/>
		<stop  offset="0.6688" style="stop-color:#DD2429"/>
		<stop  offset="1" style="stop-color:#C02327"/>
	</radialGradient>
	<path fill="url(#SVGID_10_)" d="M241.807,47.785l-0.673,0.4c-0.127-0.219-0.247-0.361-0.36-0.43
		c-0.119-0.074-0.272-0.113-0.461-0.113c-0.23,0-0.422,0.064-0.573,0.196c-0.153,0.128-0.229,0.29-0.229,0.485
		c0,0.268,0.199,0.484,0.601,0.649l0.55,0.226c0.446,0.18,0.774,0.4,0.981,0.662c0.207,0.26,0.311,0.58,0.311,0.959
		c0,0.506-0.169,0.926-0.508,1.256c-0.34,0.332-0.762,0.5-1.266,0.5c-0.479,0-0.873-0.142-1.185-0.425
		c-0.308-0.283-0.499-0.683-0.574-1.195l0.843-0.187c0.037,0.324,0.104,0.547,0.198,0.672c0.172,0.238,0.422,0.357,0.75,0.357
		c0.259,0,0.474-0.087,0.646-0.261c0.17-0.174,0.256-0.394,0.256-0.66c0-0.106-0.014-0.205-0.045-0.294
		c-0.029-0.089-0.075-0.172-0.139-0.246c-0.062-0.076-0.144-0.146-0.244-0.211c-0.1-0.064-0.22-0.128-0.356-0.188l-0.532-0.221
		c-0.755-0.319-1.132-0.785-1.132-1.398c0-0.414,0.159-0.761,0.474-1.039c0.317-0.281,0.711-0.422,1.182-0.422
		C240.954,46.857,241.45,47.166,241.807,47.785z"/>
	<rect x="188.372" y="13.142" fill="#00A44C" width="1" height="27.927"/>
</g>
</svg>
