<svg width="1152" height="240" viewBox="0 0 1152 240" fill="none" xmlns="http://www.w3.org/2000/svg">
<path d="M129.483 122C147.083 122 178.383 121.8 178.383 99.3V97.3C178.383 75 151.283 75 135.383 75C121.283 75 113.183 75 113.183 70.6C113.183 66.7 119.683 66 123.483 66C127.383 66 135.383 66.6 135.383 72H174.383C174.383 51 143.783 50 127.383 50H118.383C102.083 50 71.3828 51 71.3828 71.2C71.3828 92 98.7828 93 113.183 93C126.883 93 137.383 93 137.383 97.7C137.383 101.6 129.883 102 124.783 102C120.083 102 111.383 101.7 111.383 96H70.3828C70.3828 121.8 99.7828 122 119.183 122H129.483ZM205.514 121H240.514V72H269.414V51H177.414V72H205.514V121ZM361.41 85.7C371.01 85.7 378.41 78.2 378.41 68C378.41 56.2 368.61 51 352.11 51H273.41V121H308.41V97.7H331.91C339.11 97.7 343.41 101.9 343.41 109.5V121H379.41V103.4C379.41 93.3 371.11 86.1 361.41 85.7ZM308.41 78.7V70H339.01C341.41 70 343.41 71.9 343.41 74.4C343.41 76.8 341.41 78.7 339.01 78.7H308.41ZM383.371 121H469.371V101H418.371V94.5H469.371V76H418.371V70H469.371V51H383.371V121ZM473.41 121H559.41V101H508.41V94.5H559.41V76H508.41V70H559.41V51H473.41V121ZM591.549 121H626.549V72H655.449V51H563.449V72H591.549V121ZM734.592 121L769.592 51H730.992L713.492 93L696.092 51H657.592L692.492 121H734.592ZM823.508 121H909.508V101H858.508V94.5H909.508V76H858.508V70H909.508V51H823.508V121ZM1081.59 51H1041.59L1028.89 93L1016.49 51H976.494L964.094 93L951.594 51H911.594L938.094 121H983.094L996.594 81L1008.09 121H1055.09L1081.59 51Z" fill="white"/>
<path d="M219.895 207.33C222.365 207.33 224.835 207.07 227.305 206.68V226.83C221.195 227.87 215.215 228 209.105 228C199.485 228 191.035 224.88 183.105 219.68L182.455 219.16L181.805 219.55C168.545 226.31 153.205 228 138.385 228C120.185 228 83.0055 226.7 83.0055 203.69C83.0055 186.53 103.545 181.59 118.235 179.12L121.615 178.47L118.755 176.65C109.915 171.19 102.375 165.73 102.375 155.07C102.375 137.91 138.255 137 150.085 137C162.825 137 196.365 138.04 196.365 156.37C196.365 168.59 174.395 174.96 163.345 176.52L159.835 177.04L185.315 193.16L186.095 192.25C189.475 187.7 190.645 180.16 190.775 174.57H224.575C224.185 185.75 218.335 196.28 210.405 204.21L208.715 205.9L211.055 206.42C213.915 206.94 216.905 207.33 219.895 207.33ZM211.315 205.12C220.415 196.02 226.005 184.58 226.005 173.27H189.605C189.605 177.82 188.565 186.92 185.055 191.47L163.605 177.82C175.955 176 197.665 169.24 197.665 156.37C197.665 136.87 163.605 135.7 150.085 135.7C136.045 135.7 101.075 137 101.075 155.07C101.075 166.38 109.005 172.1 118.105 177.82C103.025 180.42 81.7055 185.49 81.7055 203.69C81.7055 228 119.925 229.3 138.385 229.3C153.205 229.3 168.935 227.61 182.455 220.72C189.735 225.66 198.185 229.3 209.105 229.3C219.895 229.3 221.845 229.17 228.605 228V205.12C225.485 205.77 222.625 206.03 219.895 206.03C217.035 206.03 214.305 205.64 211.315 205.12ZM161.655 205.25L131.885 185.49L131.365 185.62C127.075 186.79 124.605 190.69 124.605 194.85C124.605 205.77 137.605 208.76 145.015 208.76C149.045 208.76 155.675 208.24 159.575 206.29L161.655 205.25ZM145.015 207.46C131.365 207.46 125.905 200.7 125.905 194.85C125.905 191.21 127.985 187.83 131.755 186.92L159.055 205.12C156.065 206.55 149.955 207.46 145.015 207.46ZM161.265 159.62C161.265 153.9 154.505 152.6 150.085 152.6C145.535 152.6 138.905 153.64 138.905 159.49C138.905 162.35 140.985 164.56 143.065 166.12C144.105 167.03 145.405 167.68 146.445 168.33C147.615 168.98 148.655 169.5 149.435 169.89L149.955 170.15L150.345 170.02C154.375 168.98 161.265 165.47 161.265 159.62ZM150.085 168.85C145.535 166.38 140.205 163.52 140.205 159.49C140.075 156.37 143.065 153.9 150.085 153.9C156.845 153.9 159.965 156.37 159.965 159.62C159.965 164.17 154.505 167.55 150.085 168.85ZM402.795 201.61C402.795 219.68 386.935 226.7 370.295 226.7H267.595V138.3H363.795C377.835 138.3 396.425 139.6 396.425 156.37C396.425 167.81 387.845 172.23 377.055 173.79V176.39C391.485 178.21 402.795 186.4 402.795 201.61ZM377.185 175.09C388.755 173.4 397.725 168.59 397.725 156.37C397.725 139.34 380.435 137 363.795 137H266.295V228H370.295C391.225 228 404.095 217.99 404.095 201.61C404.095 187.31 394.215 177.3 377.185 175.09ZM310.495 172.36H347.545C350.795 172.36 353.525 169.63 353.525 166.38C353.525 163.13 350.795 160.4 347.545 160.4H310.495V172.36ZM347.545 161.7C350.145 161.7 352.225 163.78 352.225 166.38C352.225 168.98 350.145 171.06 347.545 171.06H311.795V161.7H347.545ZM351.575 204.08C355.345 204.08 358.595 200.96 358.595 197.06C358.595 193.29 355.345 190.17 351.575 190.17H310.495V204.08H351.575ZM311.795 191.47H351.575C354.695 191.47 357.295 193.94 357.295 197.06C357.295 200.18 354.695 202.78 351.575 202.78H311.795V191.47ZM518.475 138.3V160.4H452.175V170.8H518.475V192.25H452.175V203.3H518.475V226.7H409.275V138.3H518.475ZM519.775 228V202H453.475V193.55H519.775V169.5H453.475V161.7H519.775V137H407.975V228H519.775ZM573.641 138.3L592.621 166.64L611.471 138.3H662.561L614.071 194.98V226.7H571.171V194.98L522.551 138.3H573.641ZM569.871 228H615.371V195.5L665.421 137H610.821L592.621 164.3L574.421 137H519.821L569.871 195.5V228ZM781.085 185.1C781.085 218.51 746.505 228 718.035 228H710.235C681.765 228 647.185 218.51 647.185 185.1V179.9C647.185 146.36 681.765 137 710.235 137H718.035C746.505 137 781.085 146.36 781.085 179.9V185.1ZM710.235 135.7C681.245 135.7 645.885 145.32 645.885 179.9V185.1C645.885 219.55 681.245 229.3 710.235 229.3H718.035C747.025 229.3 782.385 219.55 782.385 185.1V179.9C782.385 145.32 747.025 135.7 718.035 135.7H710.235ZM716.735 202C728.435 202 739.485 196.02 739.485 182.5C739.485 168.98 728.435 163 716.735 163H711.535C699.835 163 688.785 168.98 688.785 182.5C688.785 196.02 699.835 202 711.535 202H716.735ZM711.535 200.7C700.095 200.7 690.085 194.98 690.085 182.5C690.085 170.02 700.095 164.3 711.535 164.3H716.735C728.175 164.3 738.185 170.02 738.185 182.5C738.185 194.98 728.175 200.7 716.735 200.7H711.535ZM841.025 138.3L883.145 178.99V138.3H926.045V226.7H881.065L831.145 179.51V226.7H787.595V138.3H841.025ZM832.445 228V182.5L880.545 228H927.345V137H881.845V176L841.545 137H786.295V228H832.445ZM1014.45 138.3C1040.97 138.3 1069.05 150.13 1069.05 179.9V185.1C1069.05 214.87 1041.1 226.7 1014.45 226.7H933.845V138.3H1014.45ZM932.545 228H1014.45C1043.83 228 1070.35 214.35 1070.35 185.1V179.9C1070.35 150.65 1043.83 137 1014.45 137H932.545V228ZM1000.8 202C1012.63 202 1024.85 196.8 1024.85 182.5C1024.85 168.2 1012.63 163 1000.8 163H976.745V202H1000.8ZM978.045 164.3H1000.8C1012.63 164.3 1023.55 169.5 1023.55 182.5C1023.55 195.5 1012.63 200.7 1000.8 200.7H978.045V164.3Z" fill="white"/>
<path d="M227.305 206.68H228.305V205.51L227.15 205.692L227.305 206.68ZM227.305 226.83L227.473 227.816L228.305 227.674V226.83H227.305ZM183.105 219.68L182.481 220.461L182.518 220.49L182.557 220.516L183.105 219.68ZM182.455 219.16L183.08 218.379L182.537 217.945L181.941 218.303L182.455 219.16ZM181.805 219.55L182.26 220.441L182.29 220.425L182.32 220.407L181.805 219.55ZM118.235 179.12L118.401 180.106L118.413 180.104L118.424 180.102L118.235 179.12ZM121.615 178.47L121.804 179.452L124.275 178.977L122.152 177.626L121.615 178.47ZM118.755 176.65L119.292 175.806L119.281 175.799L118.755 176.65ZM163.345 176.52L163.206 175.53L163.199 175.531L163.345 176.52ZM159.835 177.04L159.689 176.051L157.025 176.445L159.301 177.885L159.835 177.04ZM185.315 193.16L184.781 194.005L185.512 194.468L186.075 193.811L185.315 193.16ZM186.095 192.25L186.855 192.901L186.877 192.874L186.898 192.846L186.095 192.25ZM190.775 174.57V173.57H189.798L189.776 174.547L190.775 174.57ZM224.575 174.57L225.575 174.605L225.611 173.57H224.575V174.57ZM210.405 204.21L209.698 203.503L210.405 204.21ZM208.715 205.9L208.008 205.193L206.72 206.481L208.499 206.876L208.715 205.9ZM211.055 206.42L210.839 207.396L210.857 207.4L210.877 207.404L211.055 206.42ZM211.315 205.12L210.608 204.413L209.246 205.775L211.144 206.105L211.315 205.12ZM226.005 173.27H227.005V172.27H226.005V173.27ZM189.605 173.27V172.27H188.605V173.27H189.605ZM185.055 191.47L184.519 192.314L185.289 192.804L185.847 192.081L185.055 191.47ZM163.605 177.82L163.46 176.831L160.803 177.222L163.069 178.664L163.605 177.82ZM118.105 177.82L118.275 178.805L120.847 178.362L118.638 176.973L118.105 177.82ZM182.455 220.72L183.017 219.893L182.528 219.561L182.001 219.829L182.455 220.72ZM228.605 228L228.776 228.985L229.605 228.842V228H228.605ZM228.605 205.12H229.605V203.89L228.402 204.141L228.605 205.12ZM161.655 205.25L162.103 206.144L163.648 205.372L162.208 204.417L161.655 205.25ZM131.885 185.49L132.438 184.657L132.071 184.413L131.643 184.52L131.885 185.49ZM131.365 185.62L131.123 184.65L131.113 184.652L131.102 184.655L131.365 185.62ZM159.575 206.29L159.128 205.396H159.128L159.575 206.29ZM131.755 186.92L132.31 186.088L131.946 185.845L131.521 185.948L131.755 186.92ZM159.055 205.12L159.487 206.022L161.073 205.263L159.61 204.288L159.055 205.12ZM143.065 166.12L143.724 165.367L143.696 165.343L143.665 165.32L143.065 166.12ZM146.445 168.33L145.915 169.178L145.937 169.192L145.96 169.204L146.445 168.33ZM149.955 170.15L149.508 171.044L149.879 171.23L150.272 171.099L149.955 170.15ZM150.345 170.02L150.096 169.052L150.062 169.06L150.029 169.071L150.345 170.02ZM150.085 168.85L149.608 169.729L149.971 169.926L150.368 169.809L150.085 168.85ZM140.205 159.49H141.205V159.469L141.205 159.448L140.205 159.49ZM219.895 208.33C222.434 208.33 224.959 208.063 227.461 207.668L227.15 205.692C224.712 206.077 222.297 206.33 219.895 206.33V208.33ZM226.305 206.68V226.83H228.305V206.68H226.305ZM227.138 225.844C221.116 226.869 215.208 227 209.105 227V229C215.223 229 221.275 228.871 227.473 227.816L227.138 225.844ZM209.105 227C199.72 227 191.458 223.961 183.654 218.844L182.557 220.516C190.613 225.799 199.25 229 209.105 229V227ZM183.73 218.899L183.08 218.379L181.831 219.941L182.481 220.461L183.73 218.899ZM181.941 218.303L181.291 218.693L182.32 220.407L182.97 220.017L181.941 218.303ZM181.351 218.659C168.3 225.312 153.148 227 138.385 227V229C153.262 229 168.791 227.308 182.26 220.441L181.351 218.659ZM138.385 227C129.286 227 115.563 226.671 104.137 223.51C98.425 221.93 93.3734 219.663 89.7643 216.449C86.1874 213.263 84.0055 209.132 84.0055 203.69H82.0055C82.0055 209.753 84.4711 214.413 88.4341 217.943C92.3651 221.444 97.7459 223.817 103.604 225.438C115.318 228.679 129.285 229 138.385 229V227ZM84.0055 203.69C84.0055 195.616 88.7955 190.37 95.5794 186.78C102.396 183.173 111.062 181.34 118.401 180.106L118.07 178.134C110.719 179.37 101.77 181.242 94.644 185.012C87.4855 188.8 82.0055 194.604 82.0055 203.69H84.0055ZM118.424 180.102L121.804 179.452L121.427 177.488L118.047 178.138L118.424 180.102ZM122.152 177.626L119.292 175.806L118.219 177.494L121.079 179.314L122.152 177.626ZM119.281 175.799C110.404 170.317 103.375 165.12 103.375 155.07H101.375C101.375 166.34 109.427 172.063 118.23 177.501L119.281 175.799ZM103.375 155.07C103.375 151.195 105.377 148.194 108.742 145.825C112.135 143.436 116.844 141.75 122.016 140.575C132.348 138.229 144.179 138 150.085 138V136C144.162 136 132.138 136.226 121.573 138.625C116.296 139.823 111.295 141.582 107.591 144.19C103.859 146.817 101.375 150.365 101.375 155.07H103.375ZM150.085 138C156.448 138 167.909 138.262 177.755 140.78C182.682 142.04 187.116 143.843 190.301 146.391C193.453 148.913 195.365 152.145 195.365 156.37H197.365C197.365 151.43 195.085 147.658 191.551 144.83C188.048 142.028 183.302 140.134 178.251 138.842C168.142 136.258 156.463 136 150.085 136V138ZM195.365 156.37C195.365 159.098 194.146 161.553 192.036 163.764C189.918 165.985 186.943 167.913 183.565 169.542C176.81 172.799 168.661 174.76 163.206 175.53L163.485 177.51C169.08 176.72 177.441 174.716 184.434 171.343C187.93 169.657 191.137 167.604 193.484 165.145C195.839 162.676 197.365 159.752 197.365 156.37H195.365ZM163.199 175.531L159.689 176.051L159.982 178.029L163.492 177.509L163.199 175.531ZM159.301 177.885L184.781 194.005L185.85 192.315L160.37 176.195L159.301 177.885ZM186.075 193.811L186.855 192.901L185.336 191.599L184.556 192.509L186.075 193.811ZM186.898 192.846C188.703 190.417 189.881 187.246 190.628 184.026C191.378 180.794 191.709 177.442 191.775 174.593L189.776 174.547C189.712 177.288 189.393 180.501 188.68 183.574C187.965 186.659 186.868 189.533 185.293 191.654L186.898 192.846ZM190.775 175.57H224.575V173.57H190.775V175.57ZM223.576 174.535C223.197 185.392 217.506 195.695 209.698 203.503L211.113 204.917C219.165 196.864 225.174 186.108 225.575 174.605L223.576 174.535ZM209.698 203.503L208.008 205.193L209.423 206.607L211.113 204.917L209.698 203.503ZM208.499 206.876L210.839 207.396L211.272 205.444L208.932 204.924L208.499 206.876ZM210.877 207.404C213.767 207.929 216.822 208.33 219.895 208.33V206.33C216.989 206.33 214.064 205.951 211.234 205.436L210.877 207.404ZM212.023 205.827C221.261 196.588 227.005 184.907 227.005 173.27H225.005C225.005 184.253 219.57 195.452 210.608 204.413L212.023 205.827ZM226.005 172.27H189.605V174.27H226.005V172.27ZM188.605 173.27C188.605 175.483 188.351 178.828 187.667 182.169C186.977 185.537 185.877 188.768 184.264 190.859L185.847 192.081C187.744 189.622 188.919 186.028 189.626 182.571C190.34 179.087 190.605 175.607 190.605 173.27H188.605ZM185.592 190.626L164.142 176.976L163.069 178.664L184.519 192.314L185.592 190.626ZM163.751 178.809C169.995 177.889 178.622 175.72 185.718 172.131C192.735 168.582 198.665 163.424 198.665 156.37H196.665C196.665 162.186 191.741 166.843 184.815 170.346C177.969 173.81 169.566 175.931 163.46 176.831L163.751 178.809ZM198.665 156.37C198.665 151.156 196.37 147.159 192.775 144.147C189.211 141.162 184.373 139.139 179.204 137.756C168.862 134.99 156.854 134.7 150.085 134.7V136.7C156.837 136.7 168.619 136.995 178.687 139.689C183.723 141.036 188.245 142.961 191.49 145.68C194.703 148.372 196.665 151.834 196.665 156.37H198.665ZM150.085 134.7C143.054 134.7 130.699 135.023 120.076 137.638C114.77 138.944 109.808 140.842 106.153 143.624C102.467 146.431 100.075 150.172 100.075 155.07H102.075C102.075 150.933 104.055 147.735 107.365 145.216C110.705 142.672 115.364 140.857 120.554 139.58C130.927 137.027 143.076 136.7 150.085 136.7V134.7ZM100.075 155.07C100.075 166.985 108.511 172.97 117.573 178.667L118.638 176.973C109.5 171.23 102.075 165.775 102.075 155.07H100.075ZM117.936 176.835C110.393 178.135 101.149 180.072 93.778 184.024C86.3689 187.995 80.7055 194.094 80.7055 203.69H82.7055C82.7055 195.086 87.702 189.55 94.7229 185.786C101.782 182.003 110.738 180.105 118.275 178.805L117.936 176.835ZM80.7055 203.69C80.7055 210.069 83.2278 214.97 87.2909 218.685C91.3231 222.373 96.8434 224.87 102.85 226.573C114.86 229.979 129.156 230.3 138.385 230.3V228.3C129.155 228.3 115.111 227.971 103.396 224.649C97.5401 222.989 92.3516 220.603 88.6406 217.209C84.9607 213.844 82.7055 209.466 82.7055 203.69H80.7055ZM138.385 230.3C153.261 230.3 169.18 228.608 182.91 221.611L182.001 219.829C168.691 226.612 153.15 228.3 138.385 228.3V230.3ZM181.894 221.547C189.294 226.569 197.937 230.3 209.105 230.3V228.3C198.434 228.3 190.176 224.751 183.017 219.893L181.894 221.547ZM209.105 230.3C219.924 230.3 221.937 230.169 228.776 228.985L228.435 227.015C221.754 228.171 219.867 228.3 209.105 228.3V230.3ZM229.605 228V205.12H227.605V228H229.605ZM228.402 204.141C225.351 204.777 222.56 205.03 219.895 205.03V207.03C222.691 207.03 225.62 206.763 228.809 206.099L228.402 204.141ZM219.895 205.03C217.125 205.03 214.464 204.653 211.487 204.135L211.144 206.105C214.147 206.627 216.946 207.03 219.895 207.03V205.03ZM162.208 204.417L132.438 184.657L131.332 186.323L161.102 206.083L162.208 204.417ZM131.643 184.52L131.123 184.65L131.608 186.59L132.128 186.46L131.643 184.52ZM131.102 184.655C126.315 185.961 123.605 190.307 123.605 194.85H125.605C125.605 191.073 127.836 187.619 131.629 186.585L131.102 184.655ZM123.605 194.85C123.605 200.807 127.19 204.572 131.58 206.792C135.939 208.997 141.209 209.76 145.015 209.76V207.76C141.412 207.76 136.477 207.028 132.483 205.008C128.52 203.003 125.605 199.813 125.605 194.85H123.605ZM145.015 209.76C147.068 209.76 149.78 209.628 152.484 209.246C155.17 208.867 157.929 208.231 160.023 207.184L159.128 205.396C157.322 206.299 154.816 206.898 152.204 207.266C149.611 207.632 146.993 207.76 145.015 207.76V209.76ZM160.023 207.184L162.103 206.144L161.208 204.356L159.128 205.396L160.023 207.184ZM145.015 206.46C138.349 206.46 133.81 204.81 130.961 202.563C128.118 200.322 126.905 197.453 126.905 194.85H124.905C124.905 198.096 126.423 201.533 129.723 204.134C133.016 206.73 138.032 208.46 145.015 208.46V206.46ZM126.905 194.85C126.905 191.574 128.757 188.672 131.99 187.892L131.521 185.948C127.214 186.988 124.905 190.846 124.905 194.85H126.905ZM131.201 187.752L158.501 205.952L159.61 204.288L132.31 186.088L131.201 187.752ZM158.624 204.218C157.258 204.871 155.095 205.438 152.607 205.839C150.139 206.237 147.43 206.46 145.015 206.46V208.46C147.541 208.46 150.357 208.228 152.926 207.813C155.476 207.402 157.862 206.799 159.487 206.022L158.624 204.218ZM162.265 159.62C162.265 156.251 160.226 154.204 157.754 153.058C155.324 151.931 152.364 151.6 150.085 151.6V153.6C152.227 153.6 154.857 153.919 156.912 154.872C158.925 155.805 160.265 157.269 160.265 159.62H162.265ZM150.085 151.6C147.765 151.6 144.802 151.861 142.382 152.938C141.162 153.481 140.036 154.252 139.214 155.344C138.382 156.449 137.905 157.825 137.905 159.49H139.905C139.905 158.23 140.258 157.283 140.811 156.547C141.375 155.799 142.191 155.212 143.196 154.765C145.229 153.859 147.856 153.6 150.085 153.6V151.6ZM137.905 159.49C137.905 162.855 140.34 165.326 142.465 166.92L143.665 165.32C141.631 163.794 139.905 161.845 139.905 159.49H137.905ZM142.407 166.873C143.527 167.853 144.99 168.599 145.915 169.178L146.975 167.482C145.821 166.761 144.684 166.207 143.724 165.367L142.407 166.873ZM145.96 169.204C147.151 169.866 148.208 170.394 148.988 170.784L149.883 168.996C149.103 168.606 148.08 168.094 146.931 167.456L145.96 169.204ZM148.988 170.784L149.508 171.044L150.403 169.256L149.883 168.996L148.988 170.784ZM150.272 171.099L150.662 170.969L150.029 169.071L149.639 169.201L150.272 171.099ZM150.595 170.988C152.715 170.441 155.577 169.252 157.932 167.412C160.284 165.575 162.265 162.976 162.265 159.62H160.265C160.265 162.114 158.802 164.195 156.701 165.836C154.604 167.473 152.006 168.559 150.096 169.052L150.595 170.988ZM150.563 167.971C148.265 166.724 145.882 165.435 144.066 163.975C142.228 162.499 141.205 161.034 141.205 159.49H139.205C139.205 161.976 140.848 163.956 142.813 165.535C144.799 167.13 147.356 168.506 149.608 169.729L150.563 167.971ZM141.205 159.448C141.156 158.28 141.662 157.207 142.995 156.373C144.38 155.505 146.668 154.9 150.085 154.9V152.9C146.483 152.9 143.766 153.53 141.933 154.677C140.049 155.858 139.125 157.58 139.206 159.532L141.205 159.448ZM150.085 154.9C153.365 154.9 155.623 155.503 157.027 156.387C158.388 157.244 158.965 158.368 158.965 159.62H160.965C160.965 157.622 159.983 155.886 158.094 154.695C156.248 153.532 153.566 152.9 150.085 152.9V154.9ZM158.965 159.62C158.965 161.47 157.853 163.197 156.048 164.681C154.255 166.155 151.912 167.27 149.803 167.891L150.368 169.809C152.678 169.13 155.276 167.905 157.318 166.226C159.348 164.558 160.965 162.32 160.965 159.62H158.965ZM267.595 226.7H266.595V227.7H267.595V226.7ZM267.595 138.3V137.3H266.595V138.3H267.595ZM377.055 173.79L376.912 172.8L376.055 172.924V173.79H377.055ZM377.055 176.39H376.055V177.272L376.93 177.382L377.055 176.39ZM377.185 175.09L377.041 174.1L377.057 176.082L377.185 175.09ZM266.295 137V136H265.295V137H266.295ZM266.295 228H265.295V229H266.295V228ZM310.495 172.36H309.495V173.36H310.495V172.36ZM310.495 160.4V159.4H309.495V160.4H310.495ZM311.795 171.06H310.795V172.06H311.795V171.06ZM311.795 161.7V160.7H310.795V161.7H311.795ZM310.495 190.17V189.17H309.495V190.17H310.495ZM310.495 204.08H309.495V205.08H310.495V204.08ZM311.795 191.47V190.47H310.795V191.47H311.795ZM311.795 202.78H310.795V203.78H311.795V202.78ZM401.795 201.61C401.795 210.299 398.008 216.263 392.232 220.098C386.406 223.966 378.497 225.7 370.295 225.7V227.7C378.733 227.7 387.074 225.924 393.338 221.764C399.653 217.572 403.795 210.991 403.795 201.61H401.795ZM370.295 225.7H267.595V227.7H370.295V225.7ZM268.595 226.7V138.3H266.595V226.7H268.595ZM267.595 139.3H363.795V137.3H267.595V139.3ZM363.795 139.3C370.822 139.3 378.81 139.632 385.022 141.982C388.111 143.15 390.7 144.795 392.517 147.092C394.323 149.375 395.425 152.375 395.425 156.37H397.425C397.425 151.98 396.204 148.529 394.085 145.851C391.978 143.188 389.042 141.364 385.729 140.111C379.136 137.618 370.808 137.3 363.795 137.3V139.3ZM395.425 156.37C395.425 161.797 393.41 165.466 390.171 167.997C386.878 170.57 382.237 172.03 376.912 172.8L377.198 174.78C382.663 173.99 387.708 172.46 391.402 169.573C395.15 166.644 397.425 162.383 397.425 156.37H395.425ZM376.055 173.79V176.39H378.055V173.79H376.055ZM376.93 177.382C384.005 178.274 390.228 180.719 394.667 184.721C399.082 188.703 401.795 194.28 401.795 201.61H403.795C403.795 193.73 400.854 187.607 396.006 183.236C391.183 178.886 384.536 176.326 377.18 175.398L376.93 177.382ZM377.33 176.079C383.188 175.224 388.527 173.563 392.418 170.461C396.359 167.318 398.725 162.764 398.725 156.37H396.725C396.725 162.196 394.606 166.157 391.171 168.897C387.683 171.677 382.753 173.266 377.041 174.1L377.33 176.079ZM398.725 156.37C398.725 151.935 397.596 148.383 395.575 145.575C393.561 142.774 390.712 140.786 387.391 139.378C380.785 136.578 372.122 136 363.795 136V138C372.109 138 380.41 138.592 386.61 141.219C389.691 142.525 392.205 144.315 393.952 146.743C395.693 149.163 396.725 152.29 396.725 156.37H398.725ZM363.795 136H266.295V138H363.795V136ZM265.295 137V228H267.295V137H265.295ZM266.295 229H370.295V227H266.295V229ZM370.295 229C380.906 229 389.597 226.464 395.659 221.736C401.75 216.985 405.095 210.09 405.095 201.61H403.095C403.095 209.51 400.006 215.81 394.429 220.159C388.823 224.531 380.615 227 370.295 227V229ZM405.095 201.61C405.095 194.215 402.533 187.875 397.731 183.107C392.941 178.35 385.991 175.224 377.314 174.098L377.057 176.082C385.41 177.166 391.915 180.15 396.322 184.526C400.717 188.89 403.095 194.705 403.095 201.61H405.095ZM310.495 173.36H347.545V171.36H310.495V173.36ZM347.545 173.36C351.348 173.36 354.525 170.182 354.525 166.38H352.525C352.525 169.078 350.243 171.36 347.545 171.36V173.36ZM354.525 166.38C354.525 162.578 351.348 159.4 347.545 159.4V161.4C350.243 161.4 352.525 163.682 352.525 166.38H354.525ZM347.545 159.4H310.495V161.4H347.545V159.4ZM309.495 160.4V172.36H311.495V160.4H309.495ZM347.545 162.7C349.593 162.7 351.225 164.332 351.225 166.38H353.225C353.225 163.228 350.698 160.7 347.545 160.7V162.7ZM351.225 166.38C351.225 168.428 349.593 170.06 347.545 170.06V172.06C350.698 172.06 353.225 169.532 353.225 166.38H351.225ZM347.545 170.06H311.795V172.06H347.545V170.06ZM312.795 171.06V161.7H310.795V171.06H312.795ZM311.795 162.7H347.545V160.7H311.795V162.7ZM351.575 205.08C355.886 205.08 359.595 201.524 359.595 197.06H357.595C357.595 200.396 354.805 203.08 351.575 203.08V205.08ZM359.595 197.06C359.595 192.714 355.873 189.17 351.575 189.17V191.17C354.817 191.17 357.595 193.866 357.595 197.06H359.595ZM351.575 189.17H310.495V191.17H351.575V189.17ZM309.495 190.17V204.08H311.495V190.17H309.495ZM310.495 205.08H351.575V203.08H310.495V205.08ZM311.795 192.47H351.575V190.47H311.795V192.47ZM351.575 192.47C354.173 192.47 356.295 194.522 356.295 197.06H358.295C358.295 193.358 355.217 190.47 351.575 190.47V192.47ZM356.295 197.06C356.295 199.628 354.143 201.78 351.575 201.78V203.78C355.248 203.78 358.295 200.732 358.295 197.06H356.295ZM351.575 201.78H311.795V203.78H351.575V201.78ZM312.795 202.78V191.47H310.795V202.78H312.795ZM518.475 138.3H519.475V137.3H518.475V138.3ZM518.475 160.4V161.4H519.475V160.4H518.475ZM452.175 160.4V159.4H451.175V160.4H452.175ZM452.175 170.8H451.175V171.8H452.175V170.8ZM518.475 170.8H519.475V169.8H518.475V170.8ZM518.475 192.25V193.25H519.475V192.25H518.475ZM452.175 192.25V191.25H451.175V192.25H452.175ZM452.175 203.3H451.175V204.3H452.175V203.3ZM518.475 203.3H519.475V202.3H518.475V203.3ZM518.475 226.7V227.7H519.475V226.7H518.475ZM409.275 226.7H408.275V227.7H409.275V226.7ZM409.275 138.3V137.3H408.275V138.3H409.275ZM519.775 228V229H520.775V228H519.775ZM519.775 202H520.775V201H519.775V202ZM453.475 202H452.475V203H453.475V202ZM453.475 193.55V192.55H452.475V193.55H453.475ZM519.775 193.55V194.55H520.775V193.55H519.775ZM519.775 169.5H520.775V168.5H519.775V169.5ZM453.475 169.5H452.475V170.5H453.475V169.5ZM453.475 161.7V160.7H452.475V161.7H453.475ZM519.775 161.7V162.7H520.775V161.7H519.775ZM519.775 137H520.775V136H519.775V137ZM407.975 137V136H406.975V137H407.975ZM407.975 228H406.975V229H407.975V228ZM517.475 138.3V160.4H519.475V138.3H517.475ZM518.475 159.4H452.175V161.4H518.475V159.4ZM451.175 160.4V170.8H453.175V160.4H451.175ZM452.175 171.8H518.475V169.8H452.175V171.8ZM517.475 170.8V192.25H519.475V170.8H517.475ZM518.475 191.25H452.175V193.25H518.475V191.25ZM451.175 192.25V203.3H453.175V192.25H451.175ZM452.175 204.3H518.475V202.3H452.175V204.3ZM517.475 203.3V226.7H519.475V203.3H517.475ZM518.475 225.7H409.275V227.7H518.475V225.7ZM410.275 226.7V138.3H408.275V226.7H410.275ZM409.275 139.3H518.475V137.3H409.275V139.3ZM520.775 228V202H518.775V228H520.775ZM519.775 201H453.475V203H519.775V201ZM454.475 202V193.55H452.475V202H454.475ZM453.475 194.55H519.775V192.55H453.475V194.55ZM520.775 193.55V169.5H518.775V193.55H520.775ZM519.775 168.5H453.475V170.5H519.775V168.5ZM454.475 169.5V161.7H452.475V169.5H454.475ZM453.475 162.7H519.775V160.7H453.475V162.7ZM520.775 161.7V137H518.775V161.7H520.775ZM519.775 136H407.975V138H519.775V136ZM406.975 137V228H408.975V137H406.975ZM407.975 229H519.775V227H407.975V229ZM573.641 138.3L574.472 137.744L574.174 137.3H573.641V138.3ZM592.621 166.64L591.79 167.196L592.624 168.441L593.453 167.194L592.621 166.64ZM611.471 138.3V137.3H610.935L610.638 137.746L611.471 138.3ZM662.561 138.3L663.321 138.95L664.732 137.3H662.561V138.3ZM614.071 194.98L613.311 194.33L613.071 194.611V194.98H614.071ZM614.071 226.7V227.7H615.071V226.7H614.071ZM571.171 226.7H570.171V227.7H571.171V226.7ZM571.171 194.98H572.171V194.61L571.93 194.329L571.171 194.98ZM522.551 138.3V137.3H520.375L521.792 138.951L522.551 138.3ZM569.871 228H568.871V229H569.871V228ZM615.371 228V229H616.371V228H615.371ZM615.371 195.5L614.611 194.85L614.371 195.131V195.5H615.371ZM665.421 137L666.181 137.65L667.592 136H665.421V137ZM610.821 137V136H610.286L609.989 136.445L610.821 137ZM592.621 164.3L591.789 164.855L592.621 166.103L593.453 164.855L592.621 164.3ZM574.421 137L575.253 136.445L574.956 136H574.421V137ZM519.821 137V136H517.649L519.061 137.65L519.821 137ZM569.871 195.5H570.871V195.131L570.631 194.85L569.871 195.5ZM572.81 138.856L591.79 167.196L593.452 166.084L574.472 137.744L572.81 138.856ZM593.453 167.194L612.303 138.854L610.638 137.746L591.788 166.086L593.453 167.194ZM611.471 139.3H662.561V137.3H611.471V139.3ZM661.801 137.65L613.311 194.33L614.831 195.63L663.321 138.95L661.801 137.65ZM613.071 194.98V226.7H615.071V194.98H613.071ZM614.071 225.7H571.171V227.7H614.071V225.7ZM572.171 226.7V194.98H570.171V226.7H572.171ZM571.93 194.329L523.31 137.649L521.792 138.951L570.412 195.631L571.93 194.329ZM522.551 139.3H573.641V137.3H522.551V139.3ZM569.871 229H615.371V227H569.871V229ZM616.371 228V195.5H614.371V228H616.371ZM616.131 196.15L666.181 137.65L664.661 136.35L614.611 194.85L616.131 196.15ZM665.421 136H610.821V138H665.421V136ZM609.989 136.445L591.789 163.745L593.453 164.855L611.653 137.555L609.989 136.445ZM593.453 163.745L575.253 136.445L573.589 137.555L591.789 164.855L593.453 163.745ZM574.421 136H519.821V138H574.421V136ZM519.061 137.65L569.111 196.15L570.631 194.85L520.581 136.35L519.061 137.65ZM568.871 195.5V228H570.871V195.5H568.871ZM780.085 185.1C780.085 201.371 771.705 211.789 759.764 218.198C747.763 224.637 732.187 227 718.035 227V229C732.353 229 748.302 226.618 760.709 219.96C773.175 213.271 782.085 202.239 782.085 185.1H780.085ZM718.035 227H710.235V229H718.035V227ZM710.235 227C696.083 227 680.507 224.637 668.507 218.198C656.565 211.789 648.185 201.371 648.185 185.1H646.185C646.185 202.239 655.095 213.271 667.561 219.96C679.968 226.618 695.917 229 710.235 229V227ZM648.185 185.1V179.9H646.185V185.1H648.185ZM648.185 179.9C648.185 163.563 656.566 153.145 668.506 146.754C680.505 140.331 696.082 138 710.235 138V136C695.919 136 679.97 138.349 667.562 144.991C655.094 151.665 646.185 162.697 646.185 179.9H648.185ZM710.235 138H718.035V136H710.235V138ZM718.035 138C732.189 138 747.765 140.331 759.764 146.754C771.704 153.145 780.085 163.563 780.085 179.9H782.085C782.085 162.697 773.176 151.665 760.708 144.991C748.3 138.349 732.352 136 718.035 136V138ZM780.085 179.9V185.1H782.085V179.9H780.085ZM710.235 134.7C695.658 134.7 679.383 137.114 666.714 143.953C653.985 150.823 644.885 162.181 644.885 179.9H646.885C646.885 163.039 655.466 152.297 667.664 145.712C679.923 139.096 695.823 136.7 710.235 136.7V134.7ZM644.885 179.9V185.1H646.885V179.9H644.885ZM644.885 185.1C644.885 202.755 653.986 214.112 666.713 220.998C679.381 227.853 695.656 230.3 710.235 230.3V228.3C695.824 228.3 679.924 225.872 667.665 219.239C655.465 212.638 646.885 201.895 646.885 185.1H644.885ZM710.235 230.3H718.035V228.3H710.235V230.3ZM718.035 230.3C732.614 230.3 748.889 227.853 761.557 220.998C774.285 214.112 783.385 202.755 783.385 185.1H781.385C781.385 201.895 772.806 212.638 760.606 219.239C748.346 225.872 732.446 228.3 718.035 228.3V230.3ZM783.385 185.1V179.9H781.385V185.1H783.385ZM783.385 179.9C783.385 162.181 774.286 150.823 761.556 143.953C748.888 137.114 732.612 134.7 718.035 134.7V136.7C732.448 136.7 748.348 139.096 760.606 145.712C772.805 152.297 781.385 163.039 781.385 179.9H783.385ZM718.035 134.7H710.235V136.7H718.035V134.7ZM716.735 203C722.739 203 728.656 201.468 733.1 198.119C737.579 194.742 740.485 189.57 740.485 182.5H738.485C738.485 188.95 735.867 193.528 731.896 196.521C727.889 199.542 722.432 201 716.735 201V203ZM740.485 182.5C740.485 175.43 737.579 170.258 733.1 166.881C728.656 163.532 722.739 162 716.735 162V164C722.432 164 727.889 165.458 731.896 168.479C735.867 171.472 738.485 176.05 738.485 182.5H740.485ZM716.735 162H711.535V164H716.735V162ZM711.535 162C705.532 162 699.614 163.532 695.171 166.881C690.692 170.258 687.785 175.43 687.785 182.5H689.785C689.785 176.05 692.404 171.472 696.375 168.479C700.381 165.458 705.839 164 711.535 164V162ZM687.785 182.5C687.785 189.57 690.692 194.742 695.171 198.119C699.614 201.468 705.532 203 711.535 203V201C705.839 201 700.381 199.542 696.375 196.521C692.404 193.528 689.785 188.95 689.785 182.5H687.785ZM711.535 203H716.735V201H711.535V203ZM711.535 199.7C705.966 199.7 700.836 198.306 697.125 195.484C693.45 192.689 691.085 188.438 691.085 182.5H689.085C689.085 189.042 691.726 193.891 695.915 197.076C700.069 200.234 705.665 201.7 711.535 201.7V199.7ZM691.085 182.5C691.085 176.562 693.45 172.311 697.125 169.516C700.836 166.694 705.966 165.3 711.535 165.3V163.3C705.665 163.3 700.069 164.766 695.915 167.924C691.726 171.109 689.085 175.958 689.085 182.5H691.085ZM711.535 165.3H716.735V163.3H711.535V165.3ZM716.735 165.3C722.305 165.3 727.434 166.694 731.145 169.516C734.821 172.311 737.185 176.562 737.185 182.5H739.185C739.185 175.958 736.544 171.109 732.355 167.924C728.201 164.766 722.606 163.3 716.735 163.3V165.3ZM737.185 182.5C737.185 188.438 734.821 192.689 731.145 195.484C727.434 198.306 722.305 199.7 716.735 199.7V201.7C722.606 201.7 728.201 200.234 732.355 197.076C736.544 193.891 739.185 189.042 739.185 182.5H737.185ZM716.735 199.7H711.535V201.7H716.735V199.7ZM841.025 138.3L841.72 137.581L841.429 137.3H841.025V138.3ZM883.145 178.99L882.451 179.709L884.145 181.346V178.99H883.145ZM883.145 138.3V137.3H882.145V138.3H883.145ZM926.045 138.3H927.045V137.3H926.045V138.3ZM926.045 226.7V227.7H927.045V226.7H926.045ZM881.065 226.7L880.378 227.427L880.667 227.7H881.065V226.7ZM831.145 179.51L831.832 178.783L830.145 177.189V179.51H831.145ZM831.145 226.7V227.7H832.145V226.7H831.145ZM787.595 226.7H786.595V227.7H787.595V226.7ZM787.595 138.3V137.3H786.595V138.3H787.595ZM832.445 228V229H833.445V228H832.445ZM832.445 182.5L833.133 181.774L831.445 180.178V182.5H832.445ZM880.545 228L879.858 228.726L880.147 229H880.545V228ZM927.345 228V229H928.345V228H927.345ZM927.345 137H928.345V136H927.345V137ZM881.845 137V136H880.845V137H881.845ZM881.845 176L881.15 176.719L882.845 178.359V176H881.845ZM841.545 137L842.241 136.281L841.95 136H841.545V137ZM786.295 137V136H785.295V137H786.295ZM786.295 228H785.295V229H786.295V228ZM840.331 139.019L882.451 179.709L883.84 178.271L841.72 137.581L840.331 139.019ZM884.145 178.99V138.3H882.145V178.99H884.145ZM883.145 139.3H926.045V137.3H883.145V139.3ZM925.045 138.3V226.7H927.045V138.3H925.045ZM926.045 225.7H881.065V227.7H926.045V225.7ZM881.752 225.973L831.832 178.783L830.458 180.237L880.378 227.427L881.752 225.973ZM830.145 179.51V226.7H832.145V179.51H830.145ZM831.145 225.7H787.595V227.7H831.145V225.7ZM788.595 226.7V138.3H786.595V226.7H788.595ZM787.595 139.3H841.025V137.3H787.595V139.3ZM833.445 228V182.5H831.445V228H833.445ZM831.758 183.226L879.858 228.726L881.233 227.274L833.133 181.774L831.758 183.226ZM880.545 229H927.345V227H880.545V229ZM928.345 228V137H926.345V228H928.345ZM927.345 136H881.845V138H927.345V136ZM880.845 137V176H882.845V137H880.845ZM882.541 175.281L842.241 136.281L840.85 137.719L881.15 176.719L882.541 175.281ZM841.545 136H786.295V138H841.545V136ZM785.295 137V228H787.295V137H785.295ZM786.295 229H832.445V227H786.295V229ZM933.845 226.7H932.845V227.7H933.845V226.7ZM933.845 138.3V137.3H932.845V138.3H933.845ZM932.545 228H931.545V229H932.545V228ZM932.545 137V136H931.545V137H932.545ZM976.745 163V162H975.745V163H976.745ZM976.745 202H975.745V203H976.745V202ZM978.045 164.3V163.3H977.045V164.3H978.045ZM978.045 200.7H977.045V201.7H978.045V200.7ZM1014.45 139.3C1027.58 139.3 1041.02 142.233 1051.15 148.776C1061.23 155.291 1068.05 165.389 1068.05 179.9H1070.05C1070.05 164.641 1062.82 153.939 1052.23 147.096C1041.69 140.282 1027.83 137.3 1014.45 137.3V139.3ZM1068.05 179.9V185.1H1070.05V179.9H1068.05ZM1068.05 185.1C1068.05 199.612 1061.26 209.711 1051.2 216.224C1041.09 222.767 1027.64 225.7 1014.45 225.7V227.7C1027.9 227.7 1041.75 224.718 1052.28 217.903C1062.86 211.059 1070.05 200.358 1070.05 185.1H1068.05ZM1014.45 225.7H933.845V227.7H1014.45V225.7ZM934.845 226.7V138.3H932.845V226.7H934.845ZM933.845 139.3H1014.45V137.3H933.845V139.3ZM932.545 229H1014.45V227H932.545V229ZM1014.45 229C1029.27 229 1043.46 225.559 1053.98 218.343C1064.53 211.101 1071.35 200.077 1071.35 185.1H1069.35C1069.35 199.373 1062.9 209.799 1052.85 216.694C1042.76 223.616 1029 227 1014.45 227V229ZM1071.35 185.1V179.9H1069.35V185.1H1071.35ZM1071.35 179.9C1071.35 164.923 1064.53 153.899 1053.98 146.657C1043.46 139.441 1029.27 136 1014.45 136V138C1029 138 1042.76 141.384 1052.85 148.306C1062.9 155.201 1069.35 165.627 1069.35 179.9H1071.35ZM1014.45 136H932.545V138H1014.45V136ZM931.545 137V228H933.545V137H931.545ZM1000.8 203C1006.83 203 1013.07 201.676 1017.82 198.439C1022.62 195.168 1025.85 189.985 1025.85 182.5H1023.85C1023.85 189.315 1020.96 193.882 1016.69 196.786C1012.38 199.724 1006.59 201 1000.8 201V203ZM1025.85 182.5C1025.85 175.015 1022.62 169.832 1017.82 166.561C1013.07 163.324 1006.83 162 1000.8 162V164C1006.59 164 1012.38 165.276 1016.69 168.214C1020.96 171.118 1023.85 175.685 1023.85 182.5H1025.85ZM1000.8 162H976.745V164H1000.8V162ZM975.745 163V202H977.745V163H975.745ZM976.745 203H1000.8V201H976.745V203ZM978.045 165.3H1000.8V163.3H978.045V165.3ZM1000.8 165.3C1006.59 165.3 1012.05 166.576 1016.04 169.346C1019.97 172.084 1022.55 176.326 1022.55 182.5H1024.55C1024.55 175.674 1021.66 170.816 1017.18 167.704C1012.75 164.624 1006.84 163.3 1000.8 163.3V165.3ZM1022.55 182.5C1022.55 188.674 1019.97 192.916 1016.04 195.654C1012.05 198.424 1006.59 199.7 1000.8 199.7V201.7C1006.84 201.7 1012.75 200.376 1017.18 197.296C1021.66 194.184 1024.55 189.326 1024.55 182.5H1022.55ZM1000.8 199.7H978.045V201.7H1000.8V199.7ZM979.045 200.7V164.3H977.045V200.7H979.045Z" fill="white"/>
<g clip-path="url(#clip0)">
<path d="M792.384 139.057C792.097 139.04 791.819 138.964 791.559 138.817L771.085 127.599C770.431 127.238 770.04 126.545 770.066 125.799L771.487 88.2859L767.925 86.7843C767.176 86.47 766.703 85.7263 766.726 84.9144L768.06 38.5736C768.088 37.5586 768.886 36.7346 769.9 36.6714L785.164 35.7011C785.243 35.6927 785.328 35.6979 785.406 35.7026C785.517 35.7094 785.628 35.7226 785.738 35.749L814.044 42.4305C814.594 42.5622 815.051 42.9179 815.317 43.3997L822.194 45.0761C823.151 45.3112 823.785 46.2155 823.68 47.193L818.333 97.5213C818.258 98.2186 817.814 98.828 817.174 99.1106L808.6 102.907C808.31 103.034 807.998 103.094 807.685 103.075C807.469 103.061 807.255 103.016 807.051 102.931L806.955 102.893L804.485 131.401C804.427 132.034 804.071 132.603 803.52 132.93L793.489 138.803C793.149 138.992 792.763 139.08 792.384 139.057Z" fill="#D15927"/>
<path d="M785.287 37.6633L796.01 40.1959L813.593 44.3448L812.798 44.8082L821.724 46.9892L816.377 97.3175L807.804 101.114L805.231 100.053L802.534 131.231L792.503 137.103L772.028 125.885L773.5 87.0108L768.689 84.9875L770.024 38.6337L785.287 37.6633ZM785.525 33.742C785.362 33.7321 785.198 33.7353 785.039 33.7454L769.776 34.7092C767.748 34.8355 766.159 36.4906 766.095 38.5201L764.755 84.867C764.709 86.491 765.662 87.9722 767.159 88.6008L769.468 89.5738L768.102 125.732C768.045 127.218 768.833 128.61 770.141 129.326L790.615 140.544C791.129 140.824 791.697 140.983 792.265 141.018C793.03 141.064 793.802 140.888 794.488 140.49L804.52 134.618C805.621 133.976 806.339 132.839 806.449 131.566L808.753 104.924C808.973 104.871 809.187 104.799 809.396 104.707L817.97 100.91C819.257 100.339 820.137 99.1329 820.288 97.7317L825.635 47.4034C825.845 45.4483 824.571 43.6393 822.658 43.1691L816.459 41.6585C815.941 41.109 815.264 40.7006 814.494 40.5227L796.91 36.3738L786.188 33.8412C785.968 33.7886 785.747 33.7555 785.525 33.742Z" fill="black"/>
<path d="M778.413 41.2413L774.17 39.9214L770.024 38.6337L768.683 84.9805L774.6 87.471L778.413 41.2413Z" fill="#FBBF18"/>
<path d="M770.024 38.6337L785.287 37.6633L796.01 40.1959L813.593 44.3448L812.798 44.8082L821.724 46.9892L816.702 48.0295L812.191 48.9695L807.372 47.7394L802.967 46.6196L800.63 47.1929L798.965 47.6036L785.576 44.365L775.207 41.8603L778.413 41.2413L774.17 39.9214L770.024 38.6337Z" fill="#FFE4B7"/>
<path d="M774.692 88.2179L772.045 87.3162L773.638 42.0997L775.207 41.8603L776.583 42.2061L774.692 88.2179Z" fill="#D15927"/>
<path d="M798.965 47.6036L794.914 103.711L792.503 137.097L772.029 125.878L775.207 41.8603L785.577 44.3649L798.965 47.6036Z" fill="#FBBF18"/>
<path d="M796.01 40.1959L793.222 39.5349L776.487 42.174L784.233 68.5799C784.233 68.5799 784.278 68.8187 784.602 68.8777C784.926 68.9368 785.048 68.6686 785.048 68.6686L795.61 46.7901L810.864 43.7005L796.01 40.1959Z" fill="#D15927"/>
<path d="M806.39 57.6699L805.997 91.2045L802.534 131.231L792.503 137.097L794.914 103.711L798.965 47.6036L800.63 47.1929L802.967 46.6196L806.39 57.6699Z" fill="#D15927"/>
<path d="M812.191 48.9695L807.373 47.7394L802.967 46.6196L798.819 97.401L807.804 101.114L810.037 74.5522L812.191 48.9695Z" fill="#FBBF18"/>
<path d="M812.191 48.9695L816.702 48.0295L821.724 46.9892L816.378 97.311L807.804 101.114L810.037 74.5521L812.191 48.9695Z" fill="#D15927"/>
<path d="M793.044 138.992L791.738 138.9L794.261 103.665L798.404 46.0347L799.71 46.127L795.567 103.757L793.044 138.992Z" fill="white"/>
<path d="M808.281 104.055L806.976 103.943L809.384 74.4995L811.637 47.2895L812.942 47.4014L810.69 74.6048L808.281 104.055Z" fill="white"/>
<path d="M793.844 41.4027C783.433 40.7716 775.483 31.7885 776.114 21.384C776.738 10.9726 785.722 3.01609 796.133 3.64723C806.544 4.27836 814.5 13.2618 813.869 23.6728C813.238 34.0773 804.255 42.0338 793.844 41.4027Z" fill="#FBBF18"/>
<path d="M796.014 5.60787C805.36 6.17443 812.475 14.2082 811.908 23.554C811.342 32.8997 803.308 40.0086 793.963 39.4421C784.617 38.8755 777.508 30.8421 778.074 21.5029C778.634 12.1568 786.668 5.04132 796.014 5.60787ZM796.252 1.68658C784.762 0.990077 774.843 9.76886 774.146 21.2648C773.45 32.7541 782.229 42.6664 793.719 43.3629C805.208 44.0594 815.127 35.2807 815.823 23.7913C816.527 12.2958 807.741 2.38309 796.252 1.68658Z" fill="black"/>
<path d="M804.313 12.7295C804.313 12.7295 812.032 19.3437 807.592 29.5042C802.726 40.6293 793.667 38.3615 789.334 36.4786C789.334 36.4786 799.288 36.4261 802.747 27.7411C806.205 19.0626 804.313 12.7295 804.313 12.7295Z" fill="#D15927"/>
<path d="M782.27 20.4585C782.133 20.4501 781.99 20.4218 781.849 20.3739C780.994 20.0859 780.531 19.1723 780.813 18.317C780.941 17.9247 784.088 8.75502 795.53 8.39258C796.431 8.3619 797.188 9.07032 797.218 9.97736C797.249 10.8844 796.541 11.6352 795.634 11.6655C786.538 11.9537 784.022 19.0494 783.918 19.3449C783.678 20.0584 782.989 20.502 782.27 20.4585Z" fill="#FFE4B7"/>
</g>
<defs>
<clipPath id="clip0">
<rect width="59.9683" height="139.317" fill="white" transform="translate(768.43) rotate(3.46913)"/>
</clipPath>
</defs>
</svg>
