<svg width="351" height="42" viewBox="0 0 351 42" fill="none" xmlns="http://www.w3.org/2000/svg">
<path d="M4.4 24.568H5.088C5.87733 24.568 6.44267 24.4667 6.784 24.264C7.12533 24.0613 7.296 23.736 7.296 23.288C7.296 22.84 7.12533 22.5147 6.784 22.312C6.44267 22.1093 5.87733 22.008 5.088 22.008H4.4V24.568ZM4.4 19.672H4.976C5.95733 19.672 6.448 19.2827 6.448 18.504C6.448 17.7253 5.95733 17.336 4.976 17.336H4.4V19.672ZM1.264 14.936H5.936C7.04533 14.936 7.888 15.2027 8.464 15.736C9.04 16.2693 9.328 17.0373 9.328 18.04C9.328 18.648 9.216 19.1547 8.992 19.56C8.77867 19.9547 8.448 20.2907 8 20.568C8.448 20.6533 8.82667 20.7867 9.136 20.968C9.456 21.1387 9.712 21.352 9.904 21.608C10.1067 21.864 10.2507 22.152 10.336 22.472C10.4213 22.792 10.464 23.1333 10.464 23.496C10.464 24.0613 10.3627 24.5627 10.16 25C9.968 25.4373 9.69067 25.8053 9.328 26.104C8.976 26.4027 8.544 26.6267 8.032 26.776C7.52 26.9253 6.944 27 6.304 27H1.264V14.936ZM14.9661 18.792V23.416C14.9661 24.4293 15.4568 24.936 16.4381 24.936C17.4195 24.936 17.9101 24.4293 17.9101 23.416V18.792H20.8061V23.976C20.8061 25.0853 20.4381 25.9173 19.7021 26.472C18.9768 27.0267 17.8888 27.304 16.4381 27.304C14.9875 27.304 13.8941 27.0267 13.1581 26.472C12.4328 25.9173 12.0701 25.0853 12.0701 23.976V18.792H14.9661ZM25.6693 18.792V27H22.7733V18.792H25.6693ZM22.5813 15.64C22.5813 15.416 22.6239 15.208 22.7093 15.016C22.7946 14.8133 22.9119 14.6373 23.0613 14.488C23.2106 14.3387 23.3813 14.2213 23.5733 14.136C23.7759 14.0507 23.9893 14.008 24.2133 14.008C24.4373 14.008 24.6453 14.0507 24.8373 14.136C25.0399 14.2213 25.2159 14.3387 25.3653 14.488C25.5146 14.6373 25.6319 14.8133 25.7173 15.016C25.8026 15.208 25.8453 15.416 25.8453 15.64C25.8453 15.864 25.8026 16.0773 25.7173 16.28C25.6319 16.472 25.5146 16.6427 25.3653 16.792C25.2159 16.9413 25.0399 17.0587 24.8373 17.144C24.6453 17.2293 24.4373 17.272 24.2133 17.272C23.9893 17.272 23.7759 17.2293 23.5733 17.144C23.3813 17.0587 23.2106 16.9413 23.0613 16.792C22.9119 16.6427 22.7946 16.472 22.7093 16.28C22.6239 16.0773 22.5813 15.864 22.5813 15.64ZM30.5443 13.72V27H27.6483V13.72H30.5443ZM35.7552 21.208V27H32.8593V21.208H31.8993V18.792H32.8593V16.328H35.7552V18.792H37.4033V21.208H35.7552ZM46.6655 22.856C46.6655 23.1333 46.7135 23.3893 46.8095 23.624C46.9162 23.848 47.0495 24.0453 47.2095 24.216C47.3802 24.3867 47.5775 24.52 47.8015 24.616C48.0362 24.712 48.2815 24.76 48.5375 24.76C48.7935 24.76 49.0335 24.712 49.2575 24.616C49.4922 24.52 49.6895 24.3867 49.8495 24.216C50.0202 24.0453 50.1535 23.848 50.2495 23.624C50.3562 23.3893 50.4095 23.1387 50.4095 22.872C50.4095 22.616 50.3562 22.376 50.2495 22.152C50.1535 21.9173 50.0202 21.7147 49.8495 21.544C49.6895 21.3733 49.4922 21.24 49.2575 21.144C49.0335 21.048 48.7935 21 48.5375 21C48.2815 21 48.0362 21.048 47.8015 21.144C47.5775 21.24 47.3802 21.3733 47.2095 21.544C47.0495 21.7147 46.9162 21.912 46.8095 22.136C46.7135 22.36 46.6655 22.6 46.6655 22.856ZM43.6095 22.824C43.6095 22.216 43.7322 21.6507 43.9775 21.128C44.2228 20.5947 44.5642 20.136 45.0015 19.752C45.4388 19.3573 45.9562 19.048 46.5535 18.824C47.1615 18.6 47.8228 18.488 48.5375 18.488C49.2415 18.488 49.8922 18.6 50.4895 18.824C51.0975 19.0373 51.6202 19.3413 52.0575 19.736C52.5055 20.12 52.8522 20.584 53.0975 21.128C53.3428 21.6613 53.4655 22.2533 53.4655 22.904C53.4655 23.5547 53.3375 24.152 53.0815 24.696C52.8362 25.2293 52.4948 25.6933 52.0575 26.088C51.6202 26.472 51.0922 26.7707 50.4735 26.984C49.8655 27.1973 49.2042 27.304 48.4895 27.304C47.7855 27.304 47.1348 27.1973 46.5375 26.984C45.9402 26.7707 45.4228 26.4667 44.9855 26.072C44.5588 25.6773 44.2228 25.208 43.9775 24.664C43.7322 24.1093 43.6095 23.496 43.6095 22.824ZM55.1326 18.792H58.0286V19.832C58.4233 19.352 58.8233 19.032 59.2286 18.872C59.634 18.7013 60.1086 18.616 60.6526 18.616C61.2286 18.616 61.7193 18.712 62.1246 18.904C62.5406 19.0853 62.8926 19.3467 63.1806 19.688C63.4153 19.9653 63.5753 20.2747 63.6606 20.616C63.746 20.9573 63.7886 21.3467 63.7886 21.784V27H60.8926V22.856C60.8926 22.4507 60.8606 22.1253 60.7966 21.88C60.7433 21.624 60.642 21.4213 60.4926 21.272C60.3646 21.144 60.2206 21.0533 60.0606 21C59.9006 20.9467 59.73 20.92 59.5486 20.92C59.058 20.92 58.6793 21.0693 58.4126 21.368C58.1566 21.656 58.0286 22.072 58.0286 22.616V27H55.1326V18.792Z" fill="white"/>
<path fill-rule="evenodd" clip-rule="evenodd" d="M113.32 6.90997C113.32 6.93997 113.32 6.96997 113.32 6.99997V38.3C113.32 39.96 111.96 41.31 110.31 41.31H79.01C78.97 41.31 78.92 41.31 78.88 41.31L113.32 6.90997Z" fill="#DBD9DA"/>
<path fill-rule="evenodd" clip-rule="evenodd" d="M113.32 22.65V38.3C113.32 39.96 111.96 41.31 110.31 41.31H94.65V28.09C94.65 25.01 100.12 23.04 102.69 22.35C106.87 21.23 110.05 21.6 113.32 22.65Z" fill="#FEC422"/>
<path fill-rule="evenodd" clip-rule="evenodd" d="M79.01 3.98999H110.3C110.37 3.98999 110.45 3.98999 110.52 3.99999L76.01 38.48C76 38.42 76 38.36 76 38.3V7.00999C76 5.34999 77.36 3.98999 79.01 3.98999Z" fill="#21A566"/>
<path fill-rule="evenodd" clip-rule="evenodd" d="M88.48 14.55H85.41V12.35H90.81C91.47 15.45 89.22 19.14 85.37 19.14C82.21 19.14 79.57 16.64 79.57 13.39C79.57 10.21 82.19 7.62 85.26 7.62C86.42 7.62 88.04 8.00999 89.25 9.18999L87.56 10.88C86.92 10.33 86.27 10.03 85.32 10.03C83.46 10.03 81.98 11.53 81.98 13.38C81.98 15.23 83.45 16.76 85.31 16.76C86.86 16.75 88.01 15.85 88.48 14.55Z" fill="white"/>
<path fill-rule="evenodd" clip-rule="evenodd" d="M113.32 17.89V22.66C110.89 21.88 108.5 21.47 105.72 21.77L102.07 18.16C103.63 19.19 105.5 19.78 107.5 19.78C109.67 19.78 111.68 19.08 113.32 17.89Z" fill="#C0BFBF"/>
<path fill-rule="evenodd" clip-rule="evenodd" d="M107.49 0C112.95 0 117.38 4.43 117.38 9.89C117.38 15.35 112.95 19.78 107.49 19.78C102.03 19.78 97.6 15.35 97.6 9.89C97.6 4.43 102.03 0 107.49 0Z" fill="#FEC422"/>
<path fill-rule="evenodd" clip-rule="evenodd" d="M99.46 23.46L107.52 31.54L113.31 25.77V22.65C110.05 21.6 106.86 21.22 102.68 22.34C101.83 22.57 100.65 22.95 99.46 23.46Z" fill="#F79022"/>
<path d="M146.47 22.16C146.47 24.96 145.64 27.19 143.98 28.85C142.11 30.83 139.66 31.82 136.62 31.82C133.71 31.82 131.24 30.81 129.23 28.79C127.21 26.77 126.21 24.29 126.21 21.34C126.21 18.39 127.22 15.91 129.23 13.89C131.25 11.87 133.71 10.87 136.62 10.87C138.09 10.87 139.49 11.13 140.79 11.65C142.1 12.17 143.17 12.91 144.01 13.86L142.16 15.71C141.54 14.96 140.75 14.38 139.77 13.96C138.79 13.54 137.74 13.33 136.62 13.33C134.44 13.33 132.59 14.09 131.08 15.6C129.59 17.13 128.84 19.04 128.84 21.34C128.84 23.64 129.59 25.55 131.08 27.08C132.59 28.59 134.44 29.35 136.62 29.35C138.62 29.35 140.28 28.79 141.6 27.67C142.93 26.55 143.69 25.01 143.9 23.05H136.62V20.64H146.34C146.43 21.17 146.47 21.68 146.47 22.16Z" fill="white"/>
<path d="M148.24 24.51C148.24 22.4 148.9 20.66 150.23 19.27C151.57 17.89 153.26 17.2 155.3 17.2C157.33 17.2 159.01 17.89 160.34 19.27C161.68 20.65 162.36 22.4 162.36 24.51C162.36 26.64 161.69 28.38 160.34 29.75C159.01 31.13 157.33 31.82 155.3 31.82C153.26 31.82 151.58 31.13 150.23 29.75C148.9 28.37 148.24 26.62 148.24 24.51ZM150.81 24.51C150.81 25.98 151.24 27.18 152.1 28.09C152.96 29 154.02 29.4599 155.29 29.4599C156.56 29.4599 157.62 29 158.48 28.09C159.34 27.18 159.77 25.98 159.77 24.51C159.77 23.05 159.34 21.87 158.48 20.95C157.6 20.02 156.54 19.5499 155.29 19.5499C154.04 19.5499 152.98 20.02 152.1 20.95C151.24 21.87 150.81 23.06 150.81 24.51Z" fill="white"/>
<path d="M163.92 24.51C163.92 22.4 164.58 20.66 165.91 19.27C167.25 17.89 168.94 17.2 170.98 17.2C173.01 17.2 174.69 17.89 176.02 19.27C177.36 20.65 178.04 22.4 178.04 24.51C178.04 26.64 177.37 28.38 176.02 29.75C174.69 31.13 173.01 31.82 170.98 31.82C168.94 31.82 167.26 31.13 165.91 29.75C164.58 28.37 163.92 26.62 163.92 24.51ZM166.49 24.51C166.49 25.98 166.92 27.18 167.78 28.09C168.64 29 169.7 29.4599 170.97 29.4599C172.24 29.4599 173.3 29 174.16 28.09C175.02 27.18 175.45 25.98 175.45 24.51C175.45 23.05 175.02 21.87 174.16 20.95C173.28 20.02 172.22 19.5499 170.97 19.5499C169.72 19.5499 168.66 20.02 167.78 20.95C166.92 21.87 166.49 23.06 166.49 24.51Z" fill="white"/>
<path d="M186.46 37.8699C185.69 37.8699 184.98 37.77 184.3 37.58C183.63 37.38 183.02 37.11 182.47 36.75C181.92 36.3899 181.45 35.97 181.06 35.49C180.67 35 180.37 34.4599 180.16 33.8699L182.6 32.86C182.88 33.66 183.37 34.31 184.06 34.79C184.75 35.28 185.55 35.52 186.47 35.52C187.87 35.52 188.96 35.0999 189.75 34.2599C190.54 33.4199 190.93 32.26 190.93 30.79V29.4699H190.82C190.33 30.1999 189.68 30.77 188.85 31.19C188.02 31.61 187.12 31.82 186.15 31.82C184.36 31.82 182.82 31.1199 181.53 29.7199C180.26 28.2799 179.63 26.55 179.63 24.51C179.63 22.48 180.26 20.75 181.53 19.33C182.82 17.91 184.36 17.2 186.15 17.2C187.12 17.2 188.02 17.41 188.85 17.83C189.68 18.25 190.34 18.8199 190.82 19.5499H190.93V17.65H193.39V30.78C193.39 32.98 192.77 34.7099 191.51 35.9599C190.23 37.2299 188.55 37.8699 186.46 37.8699ZM186.54 29.4699C187.81 29.4699 188.85 29.01 189.65 28.1C190.49 27.19 190.91 25.99 190.91 24.52C190.91 23.08 190.49 21.8999 189.65 20.9599C188.83 20.0299 187.79 19.5599 186.54 19.5599C185.31 19.5599 184.27 20.0299 183.43 20.9599C182.59 21.8899 182.17 23.08 182.17 24.52C182.17 25.98 182.59 27.16 183.43 28.08C184.27 29 185.31 29.4699 186.54 29.4699Z" fill="white"/>
<path d="M199.09 11.33V31.38H196.51V11.33H199.09Z" fill="white"/>
<path d="M208.24 31.82C206.22 31.82 204.56 31.13 203.26 29.75C201.95 28.37 201.3 26.62 201.3 24.51C201.3 22.42 201.93 20.68 203.2 19.29C204.47 17.9 206.09 17.2 208.07 17.2C210.1 17.2 211.72 17.86 212.93 19.17C214.14 20.48 214.74 22.33 214.74 24.7L214.71 24.9799H203.93C203.97 26.32 204.42 27.41 205.27 28.2299C206.12 29.0499 207.15 29.4599 208.35 29.4599C209.99 29.4599 211.28 28.64 212.21 27L214.51 28.12C213.89 29.28 213.04 30.18 211.95 30.84C210.86 31.49 209.62 31.82 208.24 31.82ZM204.13 22.86H212C211.93 21.91 211.54 21.12 210.84 20.49C210.14 19.86 209.2 19.5499 208.03 19.5499C207.06 19.5499 206.22 19.85 205.52 20.45C204.81 21.05 204.35 21.85 204.13 22.86Z" fill="white"/>
<path d="M235.23 26.01C235.23 27.77 234.59 29.18 233.3 30.25C231.99 31.3 230.41 31.82 228.54 31.82C226.88 31.82 225.41 31.33 224.14 30.36C222.87 29.39 221.99 28.06 221.51 26.38L223.97 25.37C224.14 25.97 224.37 26.51 224.67 26.99C224.97 27.48 225.32 27.89 225.72 28.24C226.12 28.59 226.56 28.86 227.05 29.05C227.54 29.24 228.05 29.34 228.59 29.34C229.77 29.34 230.73 29.04 231.47 28.43C232.22 27.82 232.59 27.02 232.59 26.01C232.59 25.17 232.28 24.45 231.67 23.85C231.09 23.27 230.01 22.71 228.42 22.17C226.81 21.59 225.82 21.2 225.42 20.99C223.29 19.91 222.23 18.31 222.23 16.2C222.23 14.73 222.82 13.47 223.99 12.42C225.18 11.38 226.65 10.85 228.39 10.85C229.92 10.85 231.25 11.24 232.37 12.03C233.49 12.8 234.24 13.76 234.61 14.91L232.2 15.92C231.98 15.17 231.53 14.55 230.87 14.06C230.21 13.57 229.4 13.32 228.45 13.32C227.44 13.32 226.59 13.6 225.9 14.16C225.21 14.68 224.86 15.36 224.86 16.19C224.86 16.88 225.13 17.47 225.67 17.97C226.27 18.47 227.56 19.07 229.56 19.75C231.6 20.44 233.05 21.29 233.91 22.29C234.77 23.29 235.23 24.55 235.23 26.01Z" fill="white"/>
<path d="M242.63 31.6C241.51 31.6 240.58 31.25 239.84 30.56C239.1 29.87 238.72 28.91 238.71 27.68V20.01H236.3V17.66H238.71V13.46H241.29V17.66H244.65V20.01H241.29V26.84C241.29 27.75 241.47 28.38 241.82 28.7C242.17 29.03 242.58 29.19 243.02 29.19C243.23 29.19 243.43 29.17 243.62 29.12C243.82 29.07 244 29.01 244.17 28.94L244.98 31.24C244.31 31.48 243.52 31.6 242.63 31.6Z" fill="white"/>
<path d="M249.68 31.3699H247.1V17.6499H249.56V19.8899H249.67C249.93 19.1599 250.47 18.5399 251.28 18.0299C252.09 17.5199 252.89 17.2599 253.67 17.2599C254.42 17.2599 255.05 17.3699 255.57 17.5999L254.79 20.0899C254.47 19.9599 253.97 19.8899 253.28 19.8899C252.31 19.8899 251.46 20.2799 250.75 21.0699C250.03 21.8499 249.67 22.7699 249.67 23.8099V31.3699H249.68Z" fill="white"/>
<path d="M262.59 31.82C260.57 31.82 258.91 31.13 257.61 29.75C256.3 28.37 255.65 26.62 255.65 24.51C255.65 22.42 256.28 20.68 257.55 19.29C258.82 17.9 260.44 17.2 262.42 17.2C264.45 17.2 266.07 17.86 267.28 19.17C268.49 20.48 269.09 22.33 269.09 24.7L269.06 24.9799H258.28C258.32 26.32 258.77 27.41 259.62 28.2299C260.47 29.0499 261.5 29.4599 262.7 29.4599C264.34 29.4599 265.63 28.64 266.56 27L268.86 28.12C268.24 29.28 267.39 30.18 266.3 30.84C265.21 31.49 263.97 31.82 262.59 31.82ZM258.47 22.86H266.34C266.27 21.91 265.88 21.12 265.18 20.49C264.48 19.86 263.54 19.5499 262.37 19.5499C261.4 19.5499 260.56 19.85 259.86 20.45C259.16 21.05 258.7 21.85 258.47 22.86Z" fill="white"/>
<path d="M277.74 31.82C275.72 31.82 274.06 31.13 272.76 29.75C271.45 28.37 270.8 26.62 270.8 24.51C270.8 22.42 271.43 20.68 272.7 19.29C273.97 17.9 275.59 17.2 277.57 17.2C279.6 17.2 281.22 17.86 282.43 19.17C283.64 20.48 284.24 22.33 284.24 24.7L284.21 24.9799H273.43C273.47 26.32 273.92 27.41 274.77 28.2299C275.62 29.0499 276.65 29.4599 277.85 29.4599C279.49 29.4599 280.78 28.64 281.71 27L284.01 28.12C283.39 29.28 282.54 30.18 281.45 30.84C280.35 31.49 279.12 31.82 277.74 31.82ZM273.62 22.86H281.49C281.42 21.91 281.03 21.12 280.33 20.49C279.63 19.86 278.69 19.5499 277.52 19.5499C276.55 19.5499 275.71 19.85 275.01 20.45C274.31 21.05 273.84 21.85 273.62 22.86Z" fill="white"/>
<path d="M291.6 31.6C290.48 31.6 289.55 31.25 288.81 30.56C288.07 29.87 287.69 28.91 287.68 27.68V20.01H285.27V17.66H287.68V13.46H290.26V17.66H293.62V20.01H290.26V26.84C290.26 27.75 290.44 28.38 290.79 28.7C291.14 29.03 291.55 29.19 291.99 29.19C292.2 29.19 292.4 29.17 292.59 29.12C292.79 29.07 292.97 29.01 293.14 28.94L293.95 31.24C293.28 31.48 292.49 31.6 291.6 31.6Z" fill="white"/>
<path d="M302.88 31.37H300.3L294.76 17.65H297.56L301.59 28.29H301.65L305.74 17.65H308.48L302.88 31.37Z" fill="white"/>
<path d="M313.49 12.92C313.49 13.42 313.31 13.85 312.96 14.21C312.6 14.56 312.18 14.74 311.67 14.74C311.16 14.74 310.74 14.56 310.38 14.21C310.02 13.86 309.85 13.43 309.85 12.92C309.85 12.41 310.03 11.99 310.38 11.63C310.73 11.28 311.16 11.1 311.67 11.1C312.18 11.1 312.6 11.28 312.96 11.63C313.31 11.99 313.49 12.42 313.49 12.92ZM312.96 17.65V31.37H310.38V17.65H312.96Z" fill="white"/>
<path d="M322.34 31.82C320.32 31.82 318.66 31.13 317.36 29.75C316.05 28.37 315.4 26.62 315.4 24.51C315.4 22.42 316.03 20.68 317.3 19.29C318.57 17.9 320.19 17.2 322.17 17.2C324.2 17.2 325.82 17.86 327.03 19.17C328.24 20.48 328.84 22.33 328.84 24.7L328.81 24.9799H318.03C318.07 26.32 318.52 27.41 319.37 28.2299C320.22 29.0499 321.26 29.4599 322.45 29.4599C324.09 29.4599 325.38 28.64 326.31 27L328.61 28.12C327.99 29.28 327.14 30.18 326.05 30.84C324.96 31.49 323.72 31.82 322.34 31.82ZM318.22 22.86H326.09C326.01 21.91 325.63 21.12 324.93 20.49C324.23 19.86 323.29 19.5499 322.12 19.5499C321.15 19.5499 320.31 19.85 319.61 20.45C318.91 21.05 318.45 21.85 318.22 22.86Z" fill="white"/>
<path d="M350.34 17.65L345.92 31.37H343.29L339.87 20.84L336.48 31.37H333.88L329.46 17.65H332.15L335.2 28.01H335.23L338.62 17.65H341.28L344.67 28.01H344.7L347.72 17.65H350.34Z" fill="white"/>
</svg>
